<?xml version="1.0" encoding="UTF-8"?>
<svg width="290px" height="188px" viewBox="0 0 290 188" version="1.1" xmlns="http://www.w3.org/2000/svg" xmlns:xlink="http://www.w3.org/1999/xlink">
    <title>Group 5</title>
    <g id="New-Logo" stroke="none" stroke-width="1" fill="none" fill-rule="evenodd">
        <g id="Group-5" transform="translate(1.000000, 1.000000)" fill-rule="nonzero" stroke="#162330">
            <g id="Group-4">
                <path d="M273.46875,2.84217094e-13 C281.494138,2.84217094e-13 288,6.534081 288,14.5920925 L288,171.406704 C288,173.763386 287.43144,176.084997 286.342958,178.17294 C282.621197,185.312071 273.840136,188.070135 266.729907,184.333245 L201.212061,168.561029 C198.913249,167.352853 196.372722,166.802677 193.853767,166.910502 L177.0727,171.167969 L123.270093,184.333245 C121.190604,185.426153 118.878391,185.997024 116.53125,185.997024 C108.505862,185.997024 102,179.464715 102,171.406704 L102,14.5920925 C102,6.534081 108.505862,2.84217094e-13 116.53125,2.84217094e-13 L273.46875,2.84217094e-13 Z" id="Combined-Shape"></path>
                <path d="M171.46875,0 C179.494138,0 186,6.534081 186,14.5920925 L186,171.406704 C186,173.763386 185.43144,176.084997 184.342958,178.17294 C180.621197,185.312071 171.840136,188.070135 164.729907,184.333245 L99.212061,168.561029 C96.913249,167.352853 94.372722,166.802677 91.853767,166.910502 L75.0727,171.167969 L21.270093,184.333245 C19.190604,185.426153 16.878391,185.997024 14.53125,185.997024 C6.505862,185.997024 0,179.464715 0,171.406704 L0,14.5920925 C0,6.534081 6.505862,0 14.53125,0 L171.46875,0 Z" id="Combined-Shape-Copy" transform="translate(93.000000, 93.000000) rotate(-90.000000) translate(-93.000000, -93.000000) "></path>
            </g>
        </g>
    </g>
</svg>