<svg width="360" height="360" viewBox="0 0 360 360" fill="none" xmlns="http://www.w3.org/2000/svg">
<mask id="path-1-inside-1_586_91" fill="white">
<path fill-rule="evenodd" clip-rule="evenodd" d="M360 180C360 158.855 323.084 141.542 276.334 140.098C308.371 106.019 322.232 67.6726 307.28 52.7208C292.328 37.7688 253.982 51.6309 219.903 83.6679C218.458 36.9169 201.145 0 180 0C158.855 0 141.543 36.9149 140.098 83.6642C106.019 51.6298 67.6751 37.7693 52.7237 52.7208C37.7719 67.6726 51.6335 106.018 83.6697 140.097C36.9178 141.541 0 158.854 0 180C-2.59786e-06 201.145 36.9169 218.458 83.668 219.903C51.6317 253.981 37.7701 292.327 52.7219 307.279C67.6736 322.231 106.019 308.37 140.098 276.334C141.542 323.084 158.855 360 180 360C201.146 360 218.459 323.082 219.903 276.33C253.982 308.369 292.33 322.231 307.282 307.279C322.234 292.327 308.372 253.981 276.336 219.902C323.085 218.457 360 201.145 360 180Z"/>
</mask>
<path fill-rule="evenodd" clip-rule="evenodd" d="M360 180C360 158.855 323.084 141.542 276.334 140.098C308.371 106.019 322.232 67.6726 307.28 52.7208C292.328 37.7688 253.982 51.6309 219.903 83.6679C218.458 36.9169 201.145 0 180 0C158.855 0 141.543 36.9149 140.098 83.6642C106.019 51.6298 67.6751 37.7693 52.7237 52.7208C37.7719 67.6726 51.6335 106.018 83.6697 140.097C36.9178 141.541 0 158.854 0 180C-2.59786e-06 201.145 36.9169 218.458 83.668 219.903C51.6317 253.981 37.7701 292.327 52.7219 307.279C67.6736 322.231 106.019 308.37 140.098 276.334C141.542 323.084 158.855 360 180 360C201.146 360 218.459 323.082 219.903 276.33C253.982 308.369 292.33 322.231 307.282 307.279C322.234 292.327 308.372 253.981 276.336 219.902C323.085 218.457 360 201.145 360 180Z" fill="white"/>
<path d="M276.334 140.098L275.606 139.413L274.087 141.029L276.303 141.097L276.334 140.098ZM307.28 52.7208L307.987 52.0137L307.987 52.0137L307.28 52.7208ZM219.903 83.6679L218.903 83.6988L218.971 85.9156L220.587 84.3965L219.903 83.6679ZM140.098 83.6642L139.413 84.3928L141.029 85.9118L141.097 83.6951L140.098 83.6642ZM52.7237 52.7208L52.0166 52.0137L52.0166 52.0137L52.7237 52.7208ZM83.6697 140.097L83.7005 141.097L85.9174 141.028L84.3983 139.412L83.6697 140.097ZM0 180L1 180V180H0ZM83.668 219.903L84.3966 220.587L85.9157 218.971L83.6988 218.903L83.668 219.903ZM52.7219 307.279L53.429 306.572L53.429 306.572L52.7219 307.279ZM140.098 276.334L141.097 276.303L141.029 274.087L139.413 275.606L140.098 276.334ZM219.903 276.33L220.588 275.602L218.972 274.083L218.903 276.3L219.903 276.33ZM276.336 219.902L276.305 218.903L274.088 218.971L275.607 220.587L276.336 219.902ZM276.303 141.097C299.577 141.816 320.351 146.486 335.27 153.565C350.272 160.683 359 170.048 359 180H361C361 168.807 351.27 158.943 336.127 151.758C320.901 144.533 299.841 139.823 276.365 139.098L276.303 141.097ZM306.573 53.4279C313.61 60.465 314.061 73.2584 308.486 88.9008C302.942 104.456 291.554 122.447 275.606 139.413L277.063 140.782C293.15 123.669 304.712 105.448 310.37 89.5722C315.997 73.7839 315.902 59.9284 307.987 52.0137L306.573 53.4279ZM220.587 84.3965C237.553 68.4474 255.545 57.0594 271.1 51.5154C286.743 45.9402 299.536 46.3907 306.573 53.4279L307.987 52.0137C300.073 44.0989 286.217 44.0043 270.428 49.6315C254.553 55.2898 236.331 66.8514 219.218 82.9393L220.587 84.3965ZM180 1C189.952 1 199.317 9.72783 206.436 24.731C213.515 39.6503 218.184 60.4246 218.903 83.6988L220.902 83.637C220.177 60.1602 215.468 39.1005 208.243 23.8736C201.057 8.7306 191.193 -1 180 -1V1ZM141.097 83.6951C141.816 60.4217 146.486 39.6484 153.565 24.7298C160.684 9.72736 170.048 1 180 1V-1C168.807 -1 158.943 8.73008 151.758 23.8724C144.533 39.0986 139.824 60.1573 139.098 83.6333L141.097 83.6951ZM53.4308 53.4279C60.4678 46.3909 73.2606 45.9403 88.9024 51.5148C104.457 57.0581 122.447 68.445 139.413 84.3928L140.783 82.9355C123.67 66.8489 105.449 55.2884 89.5738 49.6308C73.7861 44.0043 59.9311 44.0992 52.0166 52.0137L53.4308 53.4279ZM84.3983 139.412C68.4496 122.447 57.0619 104.456 51.5181 88.9007C45.9432 73.2583 46.3937 60.465 53.4308 53.4279L52.0166 52.0137C44.1019 59.9284 44.0073 73.7839 49.6342 89.5721C55.2923 105.448 66.8535 123.669 82.9411 140.782L84.3983 139.412ZM1 180C1 170.048 9.72806 160.683 24.7316 153.564C39.6512 146.485 60.4259 141.816 83.7005 141.097L83.6388 139.098C60.1615 139.823 39.1014 144.532 23.8742 151.757C8.73084 158.942 -1 168.807 -1 180H1ZM83.6988 218.903C60.4246 218.184 39.6503 213.515 24.731 206.436C9.72784 199.317 0.999999 189.952 1 180L-1 180C-1 191.193 8.7306 201.057 23.8736 208.243C39.1005 215.468 60.1602 220.177 83.6371 220.902L83.6988 218.903ZM53.429 306.572C46.3919 299.535 45.9414 286.742 51.5164 271.099C57.0602 255.544 68.4479 237.553 84.3966 220.587L82.9393 219.218C66.8518 236.331 55.2905 254.552 49.6324 270.428C44.0055 286.216 44.1001 300.072 52.0148 307.986L53.429 306.572ZM139.413 275.606C122.447 291.554 104.456 302.941 88.9014 308.485C73.2592 314.06 60.4661 313.609 53.429 306.572L52.0148 307.986C59.9294 315.901 73.7848 315.996 89.5728 310.369C105.448 304.711 123.669 293.15 140.782 277.063L139.413 275.606ZM180 359C170.048 359 160.683 350.272 153.565 335.27C146.486 320.351 141.816 299.577 141.097 276.303L139.098 276.365C139.823 299.841 144.533 320.901 151.758 336.127C158.943 351.27 168.807 361 180 361V359ZM218.903 276.3C218.184 299.574 213.515 320.349 206.436 335.268C199.317 350.272 189.952 359 180 359V361C191.193 361 201.058 351.269 208.243 336.126C215.468 320.899 220.177 299.839 220.902 276.361L218.903 276.3ZM306.575 306.572C299.538 313.609 286.744 314.06 271.101 308.484C255.545 302.94 237.554 291.552 220.588 275.602L219.218 277.059C236.331 293.148 254.553 304.71 270.429 310.368C286.218 315.996 300.074 315.901 307.989 307.986L306.575 306.572ZM275.607 220.587C291.556 237.553 302.944 255.544 308.488 271.099C314.063 286.742 313.612 299.535 306.575 306.572L307.989 307.986C315.904 300.072 315.999 286.216 310.372 270.428C304.713 254.552 293.152 236.331 277.065 219.217L275.607 220.587ZM359 180C359 189.952 350.273 199.316 335.27 206.435C320.352 213.514 299.578 218.184 276.305 218.903L276.367 220.902C299.843 220.176 320.902 215.467 336.128 208.242C351.27 201.057 361 191.193 361 180H359Z" fill="black" mask="url(#path-1-inside-1_586_91)"/>
</svg>
