<svg width="360" height="360" viewBox="0 0 360 360" fill="none" xmlns="http://www.w3.org/2000/svg">
<mask id="path-1-inside-1_589_93" fill="white">
<path fill-rule="evenodd" clip-rule="evenodd" d="M360 180C360 158.855 323.084 141.542 276.334 140.098C308.371 106.019 322.232 67.6726 307.28 52.7208C292.328 37.7688 253.982 51.6309 219.903 83.6679C218.458 36.9169 201.145 0 180 0C158.855 0 141.543 36.9149 140.098 83.6642C106.019 51.6298 67.6751 37.7693 52.7237 52.7208C37.7719 67.6726 51.6335 106.018 83.6697 140.097C36.9178 141.541 0 158.854 0 180C-2.59786e-06 201.145 36.9169 218.458 83.668 219.903C51.6317 253.981 37.7701 292.327 52.7219 307.279C67.6736 322.231 106.019 308.37 140.098 276.334C141.542 323.084 158.855 360 180 360C201.146 360 218.459 323.082 219.903 276.33C253.982 308.369 292.33 322.231 307.282 307.279C322.234 292.327 308.372 253.981 276.336 219.902C323.085 218.457 360 201.145 360 180Z"/>
</mask>
<path fill-rule="evenodd" clip-rule="evenodd" d="M360 180C360 158.855 323.084 141.542 276.334 140.098C308.371 106.019 322.232 67.6726 307.28 52.7208C292.328 37.7688 253.982 51.6309 219.903 83.6679C218.458 36.9169 201.145 0 180 0C158.855 0 141.543 36.9149 140.098 83.6642C106.019 51.6298 67.6751 37.7693 52.7237 52.7208C37.7719 67.6726 51.6335 106.018 83.6697 140.097C36.9178 141.541 0 158.854 0 180C-2.59786e-06 201.145 36.9169 218.458 83.668 219.903C51.6317 253.981 37.7701 292.327 52.7219 307.279C67.6736 322.231 106.019 308.37 140.098 276.334C141.542 323.084 158.855 360 180 360C201.146 360 218.459 323.082 219.903 276.33C253.982 308.369 292.33 322.231 307.282 307.279C322.234 292.327 308.372 253.981 276.336 219.902C323.085 218.457 360 201.145 360 180Z" fill="white"/>
<path d="M276.334 140.098L275.97 139.755L275.21 140.563L276.319 140.597L276.334 140.098ZM307.28 52.7208L307.634 52.3672L307.634 52.3672L307.28 52.7208ZM219.903 83.6679L219.403 83.6833L219.437 84.7918L220.245 84.0322L219.903 83.6679ZM140.098 83.6642L139.755 84.0285L140.563 84.788L140.597 83.6796L140.098 83.6642ZM52.7237 52.7208L52.3701 52.3672L52.3701 52.3672L52.7237 52.7208ZM83.6697 140.097L83.6851 140.597L84.7935 140.563L84.034 139.755L83.6697 140.097ZM0 180L0.5 180V180H0ZM83.668 219.903L84.0323 220.245L84.7918 219.437L83.6834 219.403L83.668 219.903ZM52.7219 307.279L53.0755 306.926L53.0755 306.926L52.7219 307.279ZM140.098 276.334L140.597 276.319L140.563 275.21L139.755 275.97L140.098 276.334ZM219.903 276.33L220.245 275.966L219.437 275.207L219.403 276.315L219.903 276.33ZM276.336 219.902L276.321 219.403L275.212 219.437L275.972 220.245L276.336 219.902ZM276.319 140.597C299.643 141.318 320.488 145.997 335.484 153.113C350.522 160.248 359.5 169.738 359.5 180H360.5C360.5 169.117 351.02 159.378 335.913 152.209C320.763 145.021 299.775 140.322 276.35 139.598L276.319 140.597ZM306.927 53.0743C314.183 60.3309 314.545 73.3898 308.957 89.0686C303.384 104.704 291.953 122.753 275.97 139.755L276.699 140.44C292.751 123.364 304.269 105.2 309.899 89.4043C315.513 73.6526 315.329 60.0625 307.634 52.3672L306.927 53.0743ZM220.245 84.0322C237.248 68.0484 255.297 56.617 270.932 51.0444C286.611 45.4563 299.67 45.8177 306.927 53.0743L307.634 52.3672C299.939 44.6718 286.348 44.4883 270.596 50.1025C254.801 55.7322 236.637 67.2504 219.56 83.3036L220.245 84.0322ZM180 0.5C190.262 0.5 199.752 9.47852 206.887 24.5166C214.003 39.5129 218.682 60.3585 219.403 83.6833L220.402 83.6525C219.679 60.2263 214.979 39.238 207.791 24.088C200.622 8.97991 190.883 -0.5 180 -0.5V0.5ZM140.597 83.6796C141.318 60.3556 145.998 39.5109 153.113 24.5155C160.248 9.47804 169.738 0.5 180 0.5V-0.5C169.117 -0.5 159.378 8.9794 152.21 24.0868C145.021 39.236 140.322 60.2234 139.598 83.6487L140.597 83.6796ZM53.0773 53.0743C60.3336 45.818 73.3919 45.4563 89.0702 51.0438C104.705 56.6157 122.753 68.046 139.755 84.0285L140.44 83.2999C123.364 67.248 105.201 55.7309 89.4059 50.1018C73.6547 44.4883 60.0652 44.6721 52.3701 52.3672L53.0773 53.0743ZM84.034 139.755C68.0506 122.752 56.6195 104.704 51.0471 89.0685C45.4592 73.3897 45.8207 60.3308 53.0773 53.0743L52.3701 52.3672C44.6748 60.0625 44.4912 73.6525 50.1052 89.4043C55.7347 105.2 67.2525 123.363 83.3054 140.44L84.034 139.755ZM0.5 180C0.5 169.737 9.47875 160.248 24.5172 153.112C39.5138 145.997 60.3598 141.317 83.6851 140.597L83.6542 139.598C60.2276 140.321 39.2389 145.02 24.0885 152.209C8.98014 159.377 -0.5 169.117 -0.5 180H0.5ZM83.6834 219.403C60.3585 218.682 39.5129 214.003 24.5167 206.887C9.47853 199.752 0.499999 190.262 0.5 180L-0.5 180C-0.500001 190.883 8.97991 200.622 24.088 207.791C39.238 214.979 60.2263 219.679 83.6525 220.402L83.6834 219.403ZM53.0755 306.926C45.8189 299.669 45.4574 286.61 51.0454 270.931C56.6178 255.296 68.0488 237.248 84.0323 220.245L83.3037 219.56C67.2508 236.636 55.7329 254.8 50.1034 270.596C44.4895 286.347 44.6731 299.937 52.3684 307.633L53.0755 306.926ZM139.755 275.97C122.753 291.953 104.704 303.384 89.0692 308.956C73.3906 314.544 60.3319 314.182 53.0755 306.926L52.3684 307.633C60.0636 315.328 73.6534 315.512 89.405 309.898C105.2 304.269 123.364 292.751 140.44 276.699L139.755 275.97ZM180 359.5C169.738 359.5 160.248 350.522 153.113 335.484C145.997 320.488 141.318 299.643 140.597 276.319L139.598 276.35C140.322 299.775 145.021 320.763 152.209 335.913C159.378 351.02 169.117 360.5 180 360.5V359.5ZM219.403 276.315C218.682 299.64 214.003 320.486 206.888 335.483C199.752 350.521 190.262 359.5 180 359.5V360.5C190.883 360.5 200.623 351.02 207.791 335.911C214.98 320.761 219.679 299.772 220.402 276.346L219.403 276.315ZM306.929 306.926C299.672 314.182 286.612 314.544 270.933 308.955C255.297 303.382 237.248 291.951 220.245 275.966L219.56 276.695C236.637 292.749 254.801 304.267 270.597 309.897C286.35 315.512 299.94 315.328 307.636 307.633L306.929 306.926ZM275.972 220.245C291.955 237.247 303.386 255.296 308.959 270.931C314.547 286.61 314.185 299.669 306.929 306.926L307.636 307.633C315.331 299.937 315.515 286.347 309.901 270.596C304.271 254.8 292.753 236.636 276.7 219.56L275.972 220.245ZM359.5 180C359.5 190.262 350.522 199.752 335.485 206.887C320.489 214.002 299.644 218.682 276.321 219.403L276.351 220.402C299.777 219.678 320.764 214.979 335.913 207.79C351.021 200.622 360.5 190.883 360.5 180H359.5Z" fill="black" mask="url(#path-1-inside-1_589_93)"/>
<circle cx="180" cy="180" r="81.75" stroke="black" stroke-width="0.5"/>
</svg>
