<?xml version="1.0" encoding="UTF-8"?>
<svg width="8px" height="4px" viewBox="0 0 8 4" version="1.1" xmlns="http://www.w3.org/2000/svg" xmlns:xlink="http://www.w3.org/1999/xlink">
    <title>Fill 222</title>
    <g id="Page-1" stroke="none" stroke-width="1" fill="none" fill-rule="evenodd">
        <path d="M6.86732444,0.000831771693 L6.89231962,0.00747783427 C6.92088553,0.0139617978 6.94786444,0.0139617978 6.97325637,0.00747783427 L6.99745804,0.00423585252 L6.99745804,0.00423585252 L7.01927922,0.00488424887 C7.04943213,0.00488424887 7.04625814,0.0463816152 7.08275903,0.0347104809 C7.11132494,0.0269297247 7.13671686,0.0217425539 7.17956573,0.0243361393 C7.20654464,0.00488424887 7.24463252,0.0139617978 7.27954642,0.00099387078 C7.28272041,0.0243361393 7.27161144,0.038600859 7.25574149,0.0489752006 C7.24939351,0.0528655787 7.24463252,0.0567559568 7.23987154,0.0619431275 L7.23987154,0.0619431275 L7.22717558,0.0619431275 C7.19860967,0.0788014326 7.16686977,0.0852853961 7.13512986,0.0865821888 L7.13512986,0.0865821888 L7.11873091,0.10300823 C7.10568229,0.110788986 7.08910701,0.113382571 7.07323706,0.117705214 C7.03356218,0.126782762 6.99230031,0.138453897 6.95262543,0.148828238 C6.95579942,0.185138434 6.99071331,0.169576921 7.01451824,0.172170507 C7.01927922,0.174764092 7.02404021,0.172170507 7.02880119,0.172170507 C7.04467114,0.156608994 7.06530208,0.148828238 7.090694,0.148828238 C7.10021597,0.147531446 7.10815095,0.147531446 7.11925991,0.146234653 C7.13036888,0.133266726 7.14623883,0.135860311 7.16528277,0.135860311 C7.18591371,0.126782762 7.20337065,0.126782762 7.22558858,0.135860311 C7.23669755,0.134563519 7.2509805,0.117705214 7.26050247,0.133266726 C7.27002445,0.146234653 7.24780651,0.150125031 7.23669755,0.155312202 C7.22876257,0.15920258 7.2192406,0.15920258 7.20971863,0.160499373 L7.20971863,0.160499373 L7.17956573,0.160499373 C7.17163075,0.169576921 7.15734779,0.164389751 7.15099981,0.172170507 C7.14147784,0.179951263 7.12719489,0.17865447 7.11925991,0.185138434 L7.11925991,0.185138434 L7.10180297,0.185138434 C7.07799804,0.195512775 7.05101912,0.198106361 7.02880119,0.211074288 C7.0256272,0.21237108 7.02245321,0.21237108 7.01610523,0.21237108 C7.00023528,0.227932593 6.98436533,0.251274861 6.95103843,0.234416556 C6.8986676,0.269429959 6.83518779,0.282397886 6.770121,0.300552984 L6.770121,0.300552984 C6.76377302,0.313520911 6.76059903,0.317411289 6.75425105,0.320004874 C6.76059903,0.351127899 6.77964297,0.347237521 6.80662188,0.336863179 C6.81931784,0.334269594 6.83518779,0.332972801 6.83994878,0.344643936 C6.84312277,0.35631507 6.8320138,0.365392619 6.81931784,0.369282997 C6.79392592,0.378360546 6.770121,0.395218851 6.73838109,0.396515643 C6.73362011,0.401702814 6.72727213,0.4042964 6.72092415,0.408186778 C6.67807528,0.430232254 6.63363942,0.449684144 6.58126858,0.465245656 C6.52572375,0.480807169 6.47493991,0.506743023 6.47493991,0.567692279 C6.47493991,0.584550585 6.46065696,0.602705682 6.44954799,0.618267195 C6.43526504,0.633828707 6.42256907,0.648093427 6.44002602,0.666248524 C6.45906996,0.685700415 6.48763587,0.686997208 6.5098538,0.680513244 C6.55905065,0.662358146 6.60983449,0.661061354 6.65585735,0.648093427 C6.66696632,0.645499841 6.67966228,0.646796634 6.69394523,0.645499841 C6.71616316,0.632531914 6.74155508,0.624751158 6.770121,0.62086078 C6.77646898,0.610486438 6.78599095,0.607892853 6.8002739,0.607892853 L6.8002739,0.607892853 L6.81614385,0.607892853 C6.84629676,0.592331341 6.88597164,0.598815304 6.92247252,0.596221719 C6.99071331,0.58714417 7.04943213,0.546943596 7.11925991,0.540459633 C7.12719489,0.540459633 7.13512986,0.536569255 7.14306484,0.543053218 C7.14306484,0.566395487 7.1224339,0.576769828 7.10021597,0.583253792 C7.07482405,0.589737755 7.05419311,0.602705682 7.04308415,0.618267195 C7.03038819,0.639015878 7.02404021,0.661061354 7.00182228,0.676622866 C6.97325637,0.676622866 6.98277834,0.639015878 6.95103843,0.644203049 C6.91136356,0.657170976 6.87010169,0.661061354 6.8320138,0.657170976 C6.82407883,0.662358146 6.81931784,0.664951732 6.81614385,0.66884211 C6.80344789,0.674029281 6.79551292,0.679216451 6.78599095,0.68310683 C6.78599095,0.705152305 6.76218602,0.714229854 6.75583804,0.731088159 C6.75583804,0.755727221 6.77170799,0.785553453 6.72409814,0.793334209 C6.70822819,0.812786099 6.68601026,0.80370855 6.66379233,0.805005343 C6.65585735,0.807598928 6.65268336,0.807598928 6.64792238,0.807598928 C6.6415744,0.816676477 6.63205242,0.820566855 6.61935646,0.820566855 C6.60983449,0.828347612 6.59872553,0.829644404 6.58602957,0.829644404 C6.57809459,0.838721953 6.56539863,0.836128368 6.55746366,0.842612331 C6.55111568,0.842612331 6.5447677,0.842612331 6.54159371,0.845205917 C6.55905065,0.862064222 6.57968159,0.854283466 6.59872553,0.854283466 C6.62411745,0.838721953 6.64633538,0.829644404 6.67648829,0.829644404 C6.69711922,0.83223799 6.71457617,0.827050819 6.73362011,0.820566855 C6.85264474,0.789443831 6.97008238,0.760914391 7.092281,0.733681745 C7.09704198,0.731088159 7.10021597,0.733681745 7.10338996,0.733681745 C7.12878188,0.733681745 7.13512986,0.714229854 7.15258681,0.709042683 C7.19067469,0.666248524 7.19226169,0.614376817 7.20654464,0.562505109 C7.22876257,0.488587925 7.26685046,0.415967534 7.29859036,0.343347143 C7.29859036,0.317411289 7.31287331,0.29406902 7.32874326,0.272023545 C7.34143922,0.265539581 7.34143922,0.255165239 7.34461321,0.247384483 C7.34461321,0.239603727 7.3477872,0.230526178 7.3493742,0.224042215 C7.36683114,0.179951263 7.36683114,0.179951263 7.43507193,0.185138434 C7.45570287,0.160499373 7.48585578,0.143641067 7.51600868,0.139750689 C7.55568356,0.134563519 7.5763145,0.113814835 7.60329341,0.0982533231 C7.6064674,0.0878789815 7.6080544,0.0788014326 7.62233735,0.0736142618 C7.63344632,0.0541623714 7.65090326,0.0373040663 7.68264317,0.0347104809 C7.71438307,0.00747783427 7.75564494,0.00747783427 7.79849381,0.0204457612 C7.83499469,0.0334136882 7.86673459,0.038600859 7.90958346,0.0269297247 C7.95878031,0.0165553831 8.00956415,0.0606463349 7.99845519,0.104737287 C7.99052021,0.130673141 7.9936942,0.163092958 7.96830228,0.186435226 C7.95878031,0.275913923 7.98893321,0.362799033 7.98417223,0.450980937 C7.98417223,0.470432827 7.9936942,0.493775096 7.96671528,0.509336608 C7.96671528,0.517117364 7.96671528,0.522304535 7.96830228,0.531382084 C7.96512829,0.583253792 7.98099824,0.636422292 7.95878031,0.686997208 C7.95243233,0.694777964 7.94449735,0.699965135 7.94132336,0.707745891 C7.94925834,0.795927794 7.91910543,0.884109698 7.90323548,0.972291601 C7.90323548,0.976181979 7.8968875,0.977478772 7.89530051,0.98136915 L7.89530051,0.98136915 L7.88278088,1.05547845 C7.86973225,1.10427628 7.85033564,1.15211352 7.84292967,1.20052712 C7.83499469,1.27185071 7.81595075,1.33798714 7.79055883,1.40282678 C7.78897184,1.41320112 7.79055883,1.42098187 7.81436376,1.42487225 C7.81595075,1.42746584 7.81912474,1.42746584 7.81912474,1.42746584 L7.81912474,1.42746584 L7.81912474,1.43913697 C7.81277676,1.44432414 7.81277676,1.44821452 7.82071174,1.45340169 C7.82229873,1.45729207 7.82864671,1.46118245 7.8318207,1.46377603 C7.83816868,1.4689632 7.84292967,1.47285358 7.85086464,1.47804075 C7.85721262,1.48582151 7.85721262,1.49360227 7.85086464,1.50267981 C7.84292967,1.50786698 7.83816868,1.51175736 7.8318207,1.51694453 C7.8318207,1.52731888 7.8318207,1.53380284 7.81912474,1.53899001 C7.81436376,1.54547397 7.80960277,1.54936435 7.80325479,1.5584419 C7.73184001,1.62328154 7.71597006,1.70757306 7.69533913,1.78797421 C7.69057814,1.81909723 7.68264317,1.85022026 7.65249026,1.8774529 C7.65249026,1.9137631 7.6382073,1.94747971 7.6064674,1.97341556 C7.60329341,1.97600915 7.60170642,1.97900798 7.60081373,1.98218918 C7.68105098,1.99503728 7.75730159,2.02383391 7.82493018,2.0740812 C7.88704328,2.12112319 7.95312106,2.18940995 7.95708573,2.29259883 C7.95972884,2.35785062 7.98087373,2.415515 7.99276773,2.47773182 C7.99805395,2.51415143 8.00598328,2.553606 7.99276773,2.58850812 C7.97426595,2.64162004 7.98219528,2.69624945 7.98219528,2.75239634 L7.98219528,2.75239634 L7.9916909,2.7606582 C7.9945298,2.76639091 7.99012461,2.77212363 7.97690906,2.7751586 C7.97823061,2.77667608 7.97823061,2.77971105 7.98219528,2.77971105 C7.97823061,2.80854323 7.98351684,2.83585794 7.95840728,2.85558522 C7.95708573,2.89200483 7.94122706,2.91628457 7.91347439,2.93297688 C7.92536839,2.97698391 7.93197617,3.02099093 7.94915639,3.0604455 C7.97426595,3.11962736 7.98615995,3.17577425 7.97690906,3.23950856 C8.00069706,3.34117996 7.99276773,3.43981639 7.98087373,3.54148779 C7.97426595,3.54452275 7.97294439,3.5490752 7.97690906,3.55514514 C7.97823061,3.57942487 7.97823061,3.60218713 7.95972884,3.61887945 C7.95708573,3.64012422 7.95312106,3.65833402 7.93594084,3.67047389 C7.92933306,3.6780613 7.92140373,3.68716621 7.91347439,3.69475362 C7.90686662,3.70234104 7.90025884,3.71144594 7.89232951,3.71903336 C7.88572173,3.72965574 7.87911395,3.73724316 7.87250617,3.74483058 L7.87250617,3.74483058 L7.84871817,3.77214528 C7.84343195,3.78125018 7.83550262,3.7888376 7.82757329,3.7979425 L7.80246373,3.82222224 C7.7112764,3.89657893 7.60423041,3.9178237 7.49321974,3.93148106 C7.33066841,3.95576079 7.16547398,3.93148106 7.00292265,3.97397059 C6.92759398,3.9921804 6.84962221,3.99673285 6.77297199,3.99976781 C6.55095066,4.00280278 6.33421556,3.97548808 6.1161589,3.95272583 C5.90338846,3.92996357 5.68665336,3.93755099 5.47388292,3.94513841 C5.07873783,3.95879576 4.68491428,3.94665589 4.2924123,3.9178237 C4.24880097,3.91327125 4.20518963,3.9269286 4.16025675,3.92085867 C4.11135919,3.91075223 4.06214,3.9034157 4.01271818,3.89796087 L3.87802084,3.91892881 L3.87802084,3.91892881 L3.63421873,3.95102443 C3.54376001,3.96917952 3.45647528,3.97696028 3.36442956,3.97566349 L3.36442956,3.97566349 L3.3024192,3.99242573 C3.26092222,4.00116708 3.21895501,4.00376066 3.17557715,3.99252179 C3.15177222,3.98603783 3.13114129,3.98863141 3.10892335,3.98863141 L2.72645754,3.98863141 L2.72645754,3.98863141 L2.71534858,3.99641217 C2.7079426,3.99900576 2.70053662,3.99641217 2.69313064,3.98863141 C2.63917281,3.99511538 2.58204099,3.9743667 2.52808316,3.9743667 L2.52808316,3.9743667 L2.49674,3.97501509 L2.49674,3.97501509 L2.46777734,3.97566349 C2.44555941,3.98214745 2.42651547,3.98474104 2.40588454,3.9743667 C2.37255764,3.9549148 2.33764375,3.9549148 2.29955587,3.96139877 L2.29955587,3.96139877 L2.28368592,3.96139877 C2.26622897,3.9549148 2.24401104,3.94972763 2.22020611,3.94972763 C2.19481419,3.95102443 2.20274917,3.93546291 2.20751015,3.92508857 C2.19798818,3.92508857 2.18370523,3.92379178 2.17735724,3.91341744 L2.17735724,3.91341744 L2.13292138,3.91341744 C2.11070345,3.92119819 2.09007252,3.92119819 2.07102857,3.91341744 C2.04087567,3.91341744 2.00913577,3.91341744 1.97898286,3.91471423 L1.97898286,3.91471423 L1.94295219,3.92590507 C1.91920605,3.9295553 1.89593012,3.92552084 1.87265419,3.91341744 C1.85995823,3.91341744 1.84884926,3.91601102 1.8361533,3.91082385 C1.77902148,3.89007517 1.71871567,3.87970083 1.65999685,3.86154573 C1.59016907,3.86154573 1.52034128,3.87062328 1.45844848,3.83301629 C1.45210049,3.82912591 1.44257852,3.82523553 1.43623054,3.82653233 C1.42646812,3.82724458 1.41676315,3.82753434 1.40710721,3.82746176 C1.36486949,3.84077561 1.32305846,3.83999564 1.27662262,3.82222224 C1.2237604,3.7979425 1.1642904,3.79490754 1.10746352,3.79339005 C1.0427073,3.79339005 0.980594189,3.78125018 0.923767302,3.74179561 C0.910551746,3.74786555 0.896014636,3.76000542 0.884120636,3.76000542 C0.714961531,3.74179561 0.549767092,3.70082356 0.389858875,3.64315918 L0.389858875,3.64315918 L0.372384975,3.64018042 C0.361518852,3.63692064 0.352414803,3.63051349 0.346247544,3.61736196 L0.346247544,3.61736196 L0.259995397,3.5876999 C0.171471827,3.56557784 0.078302164,3.5581801 0,3.4944458 C0.0198233327,3.45347374 0.0462544429,3.46713109 0.0713639975,3.46713109 C0.0898657747,3.46561361 0.108367552,3.48230593 0.121583107,3.46106116 C0.174445327,3.3745646 0.239201547,3.41250168 0.303957767,3.43678142 C0.329312055,3.44405972 0.356527668,3.43423979 0.380928313,3.44100356 L0.380878818,3.42971376 C0.355486897,3.42582338 0.331681971,3.41285546 0.293594089,3.41544904 C0.303512808,3.4050747 0.311844533,3.39486246 0.318415684,3.38473127 L0.29288974,3.36356284 C0.275874713,3.34269744 0.266293435,3.314624 0.268275769,3.27592817 C0.285125601,3.26170176 0.304205559,3.25963893 0.323494591,3.25989678 C0.340791323,3.23628416 0.345266014,3.22257499 0.34365416,3.21021407 L0.312052295,3.2116248 L0.312052295,3.2116248 L0.278848213,3.20915889 C0.253738658,3.20460644 0.268275769,3.18336167 0.268275769,3.16818683 C0.264311102,3.16363438 0.260346435,3.16818683 0.260346435,3.16363438 C0.260346435,3.15604697 0.257703324,3.14542458 0.257703324,3.13783716 L0.257703324,3.13783716 C0.263841216,3.12976078 0.270038006,3.12785999 0.276268826,3.12701124 C0.259705132,3.10531296 0.25127422,3.07752648 0.233288276,3.05364388 C0.220592316,3.03419199 0.21265734,3.0147401 0.188852414,2.99917859 C0.160286503,2.98102349 0.160286503,2.95379084 0.185678424,2.93952612 C0.247571232,2.90191913 0.244397242,2.86171856 0.219005321,2.81244044 C0.21265734,2.8007693 0.219005321,2.79039496 0.20948335,2.78002062 L0.209,2.781 L0.182107685,2.84291507 L0.182107685,2.84291507 L0.157112513,2.90580951 C0.153938522,2.92396461 0.160286503,2.9434165 0.141242562,2.95768122 C0.141242562,2.98621066 0.144416552,3.01863048 0.11267665,3.04067595 C0.111089655,3.04586312 0.111089655,3.0497535 0.111089655,3.05494067 C0.101567685,3.06661181 0.0983936947,3.08347011 0.0745887686,3.08736049 C0.0650667981,3.07568936 0.0745887686,3.06272143 0.0745887686,3.0497535 C0.0730017735,3.04067595 0.0745887686,3.02900482 0.0761757637,3.01992727 C0.0761757637,3.00955293 0.0777627587,3.00306896 0.0777627587,2.99269462 C0.0698277834,2.97713311 0.0682407883,2.95768122 0.0507838424,2.94082292 L0.0507838424,2.94082292 L0.0507838424,2.91877744 C0.0523708375,2.89932555 0.041261872,2.87598328 0.0587188178,2.85653139 C0.0603058129,2.84096988 0.061892808,2.82411157 0.061892808,2.80855006 L0.061892808,2.80855006 L0.0597106898,2.79250225 L0.0597106898,2.79250225 L0.0491968474,2.78131741 C0.0460228572,2.79947251 0.0571318228,2.8189244 0.0301529065,2.83059554 C0.0285659114,2.84096988 0.0222179311,2.84875063 0,2.8539378 C0.00476098523,2.82800195 -0.00634798031,2.80336289 0.0190439409,2.77094307 C0.020630936,2.75408477 0.0126959606,2.73463288 0.0301529065,2.72036816 C0.0301529065,2.7125874 0.0333268966,2.70740023 0.0349138917,2.69832268 C0.0333268966,2.68535475 0.0301529065,2.66979324 0.0460228572,2.6594189 C0.0460228572,2.64774777 0.0460228572,2.63218625 0.0491968474,2.62181191 C0.0507838424,2.60884398 0.0523708375,2.59976644 0.0650667981,2.59846964 C0.0761757637,2.58550172 0.0682407883,2.5699402 0.0809367489,2.54919152 L0.0809367489,2.54919152 L0.0811718593,2.51730003 C0.0844634046,2.49645528 0.0936327095,2.47657113 0.10632867,2.45841603 C0.111089655,2.42599621 0.117437636,2.39746678 0.138068572,2.37023413 C0.144416552,2.35467262 0.134894582,2.33392393 0.157112513,2.32095601 C0.153938522,2.29242657 0.160286503,2.26000675 0.182504434,2.2340709 L0.182504434,2.2340709 L0.185266981,2.21759683 C0.185854757,2.2062619 0.186207422,2.19473485 0.19996138,2.18608957 C0.20313537,2.16923126 0.195200394,2.14977937 0.21583133,2.13681144 C0.215914856,2.13648724 0.215998108,2.1361626 0.216081092,2.13583751 L0.214091993,2.13478054 C0.215413548,2.12415816 0.216745676,2.12273294 0.218087784,2.12139551 C0.22398721,2.10218331 0.228109661,2.08016208 0.233288276,2.05900388 C0.249158227,2.00713217 0.247571232,1.99675783 0.196787389,1.96563481 C0.157112513,1.94488612 0.120611626,1.92154386 0.0952197046,1.88782725 C0.10315468,1.88004649 0.114263646,1.88004649 0.125372611,1.88782725 C0.144416552,1.89690479 0.163460493,1.90209196 0.185678424,1.90079517 C0.198374385,1.84503309 0.20313537,1.789271 0.250745222,1.74388326 C0.271376158,1.72702495 0.272963153,1.7010891 0.280898129,1.67645004 C0.284072119,1.65310777 0.280898129,1.62068795 0.323746996,1.61420399 C0.326920986,1.61031361 0.333268966,1.60512644 0.336442956,1.60253285 C0.355486897,1.60123606 0.363421873,1.5947521 0.369769853,1.58048738 C0.372943843,1.56492586 0.380878818,1.54936435 0.396748769,1.53899001 C0.396748769,1.52991246 0.396748769,1.5234285 0.399922759,1.51435095 C0.403096749,1.51175736 0.403096749,1.50786698 0.399922759,1.50267981 C0.387226799,1.45729207 0.369769853,1.44432414 0.30311606,1.44173056 C0.272963153,1.43913697 0.242810247,1.44173056 0.21583133,1.42746584 C0.211070345,1.43265301 0.204722365,1.43654339 0.19996138,1.43913697 C0.188852414,1.43913697 0.172982463,1.43784018 0.176156453,1.42357546 C0.180917439,1.40801395 0.198374385,1.40412357 0.21583133,1.40282678 C0.222179311,1.40801395 0.225353301,1.41190433 0.231701281,1.4170915 C0.255506207,1.40412357 0.280898129,1.40152998 0.307877045,1.40282678 C0.31581202,1.39504602 0.331681971,1.3989364 0.336442956,1.38985885 L0.336442956,1.38985885 L0.352312907,1.38985885 C0.357073892,1.3807813 0.369769853,1.37818772 0.380878818,1.37818772 L0.380878818,1.37818772 L0.41579271,1.37818772 C0.4189667,1.37429734 0.423727685,1.36911017 0.430075666,1.36521979 C0.438010641,1.36521979 0.449119607,1.363923 0.460228572,1.363923 C0.471337538,1.35614224 0.471337538,1.34836148 0.460228572,1.34058073 C0.438010641,1.34058073 0.41579271,1.34058073 0.41579271,1.31723846 L0.41579271,1.31723846 L0.399922759,1.31723846 C0.395161774,1.36521979 0.349138917,1.34058073 0.311051035,1.35354865 C0.331681971,1.32112884 0.376117833,1.33279997 0.380878818,1.30297374 C0.377704828,1.29908336 0.372943843,1.29648978 0.366595863,1.27833468 C0.372943843,1.2744443 0.377704828,1.27185071 0.380878818,1.26536675 C0.388813794,1.26277317 0.393574779,1.25888279 0.399922759,1.25369562 C0.430075666,1.25110203 0.460228572,1.24461807 0.488794484,1.24202448 C0.568144237,1.22516618 0.644320001,1.18755919 0.73160473,1.2031207 C0.737952711,1.18755919 0.742713696,1.17199768 0.749061676,1.15384258 C0.736365715,1.14865541 0.73477872,1.14087465 0.73477872,1.12920352 L0.735,1.133 L0.718513211,1.13383417 C0.714016825,1.13293353 0.709564742,1.13187735 0.70515004,1.13068728 C0.696690839,1.1330939 0.691929853,1.13828107 0.687168868,1.14217144 C0.658602957,1.17199768 0.658602957,1.17199768 0.641146011,1.14217144 L0.641146011,1.14217144 L0.582427193,1.14217144 C0.571318228,1.14865541 0.557035272,1.14735862 0.552274287,1.15384258 C0.545926306,1.15643616 0.541165321,1.15643616 0.537991331,1.15643616 C0.530056356,1.15902975 0.523708375,1.16292013 0.51894739,1.1681073 L0.51894739,1.1681073 L0.474511528,1.1681073 C0.471337538,1.17199768 0.463402562,1.17459126 0.457054582,1.17848164 C0.453880592,1.17848164 0.449119607,1.17848164 0.441184631,1.18107523 C0.438010641,1.18755919 0.430075666,1.19144957 0.4189667,1.19144957 C0.411031725,1.19144957 0.396748769,1.19144957 0.393574779,1.1849656 C0.380878818,1.17459126 0.391987784,1.16681051 0.401509754,1.15902975 C0.411031725,1.15254579 0.4189667,1.14865541 0.430075666,1.14217144 C0.433249656,1.13828107 0.438010641,1.1330939 0.444358621,1.12920352 L0.460228572,1.11753238 L0.460228572,1.11753238 L0.474511528,1.10326766 C0.480859508,1.09937729 0.484033498,1.0967837 0.488794484,1.09029974 C0.493555469,1.08770615 0.499903449,1.08381577 0.503077439,1.0786286 C0.507838424,1.07473822 0.5157734,1.07214464 0.51894739,1.06825426 L0.51894739,1.06825426 L0.547,1.068 L0.525979093,1.06191968 C0.576726825,0.990294453 0.638469898,1.00122033 0.699705494,1.00068618 L0.745357308,0.996667884 C0.692495087,0.904101388 0.697781309,0.89651397 0.783682417,0.860094365 C0.828615305,0.841884563 0.861654193,0.872234233 0.899979302,0.873751717 C0.90658708,0.873751717 0.913194857,0.873751717 0.921124191,0.872234233 C0.921124191,0.854024431 0.921124191,0.838849595 0.923767302,0.820639793 C0.913194857,0.814569859 0.90658708,0.806982441 0.899979302,0.79787754 L0.899979302,0.79787754 L0.893371525,0.794842573 L0.882799081,0.794842573 C0.856367971,0.784220188 0.828615305,0.77663277 0.818042861,0.72959078 C0.896014636,0.726555813 0.963413967,0.696206142 1.03213485,0.747800583 C1.03874263,0.755388001 1.04667196,0.755388001 1.05327974,0.747800583 C1.05063663,0.72959078 1.1140713,0.711380978 1.05327974,0.693171175 C0.996452855,0.674961373 0.94491219,0.641576735 0.882799081,0.614262031 C0.942269079,0.570255008 0.985880411,0.615779515 1.03213485,0.617296998 C1.05063663,0.591499778 1.07442463,0.588464811 1.09953418,0.594534745 C1.17221974,0.608192097 1.23036818,0.58391236 1.27530107,0.515625601 C1.30569684,0.474653545 1.34930818,0.497415798 1.38895484,0.492863348 L1.39837092,0.492483977 L1.39837092,0.492483977 L1.40877817,0.489828381 C1.43124462,0.477688512 1.46296195,0.477688512 1.47353439,0.442786391 C1.48674995,0.424576588 1.50657328,0.432164006 1.51846728,0.416989171 C1.55414928,0.394226917 1.59247439,0.401814335 1.62683483,0.413954204 C1.63608572,0.413954204 1.64665817,0.413954204 1.65194439,0.41243672 C1.67705394,0.363877247 1.69291261,0.300142938 1.76163349,0.33959751 L1.76163349,0.33959751 L1.81697363,0.339787195 L1.81697363,0.339787195 L1.84885616,0.341114993 L1.84885616,0.341114993 L1.94004349,0.341114993 L1.94004349,0.341114993 L1.95028554,0.340925308 L1.95028554,0.340925308 L1.95854527,0.33959751 L2.02726615,0.33959751 C2.05501882,0.359324796 2.08805771,0.359324796 2.11581037,0.341114993 C2.11845348,0.321387707 2.1237397,0.300142938 2.12638282,0.281933135 C2.13166904,0.250065981 2.1475277,0.221233794 2.17528037,0.228821211 C2.22285637,0.242478563 2.16074326,0.281933135 2.18453126,0.306212872 C2.2188917,0.300142938 2.25853837,0.265240816 2.29289881,0.31380029 C2.31007903,0.31380029 2.32329459,0.310765323 2.3378317,0.310765323 C2.34443947,0.304695388 2.35369036,0.295590487 2.35897659,0.291038037 C2.4475208,0.181779221 2.56249613,0.210611409 2.66954213,0.212128892 C2.68407924,0.212128892 2.69861635,0.210611409 2.71447502,0.210611409 C2.76601568,0.183296705 2.82152101,0.216681343 2.87041857,0.192401606 C2.93121012,0.140807166 3.00786034,0.154464518 3.07658123,0.134737232 C3.11490634,0.124114847 3.15058834,0.111974979 3.19419967,0.118044913 C3.37789588,0.1468771 3.56423521,0.151429551 3.75057454,0.116527429 C3.84704809,0.0983176266 3.9448432,0.0725204064 4.04263831,0.0892127254 C4.07567719,0.0603805381 4.10475141,0.0178909989 4.15100586,0.0634155052 C4.15761363,0.0634155052 4.16818608,0.0603805381 4.17479386,0.0603805381 C4.1972603,0.0391357685 4.22501297,0.0527931204 4.25540874,0.0421707356 L4.25540874,0.0421707356 C4.27919674,0.00575113054 4.30694941,0.004233647 4.33205896,0.00878609763 C4.38359963,0.0269959001 4.47610851,-0.0579831783 4.47743007,0.0846602748 C4.48007318,0.102870077 4.51046896,0.113492462 4.52764918,0.105905044 C4.56333118,0.0846602748 4.59769162,0.101352594 4.63337362,0.110457495 C4.74174117,0.130184781 4.85275183,0.154464518 4.9637625,0.133219748 C5.1210276,0.102870077 5.27829271,0.113492462 5.43423626,0.110457495 L5.43423626,0.110457495 L5.47070293,0.0880746127 C5.50873895,0.0766934862 5.55086353,0.0926270634 5.59150136,0.0846602748 C5.62057558,0.0421707356 5.66286536,0.0679679558 5.69854736,0.057345571 C5.75008802,0.0239609331 5.80823647,0.0194084824 5.86638491,0.0118210647 C5.92715613,0.00266947166 5.97140494,0.0280123447 5.99573441,0.0813488038 L6.0274073,0.0788014326 C6.10834405,0.0645367129 6.19721577,0.0593495422 6.28291351,0.0606463349 C6.3178274,0.0295233101 6.36543725,0.0528655787 6.40352513,0.0489752006 C6.45748297,0.0308201028 6.51620178,0.0295233101 6.57174661,0.0243361393 C6.66220533,0.0165553831 6.75425105,0.0165553831 6.83994878,0.00099387078 C6.85899272,-0.00159971461 6.87644967,0.00099387078 6.89231962,0.00747783427 Z" id="Fill-222" fill="#0A0B09"></path>
    </g>
</svg>