<?xml version="1.0" encoding="UTF-8"?>
<svg width="843px" height="570px" viewBox="0 0 843 570" version="1.1" xmlns="http://www.w3.org/2000/svg" xmlns:xlink="http://www.w3.org/1999/xlink">
    <!-- Generator: Sketch 63.1 (92452) - https://sketch.com -->
    <title>Artboard</title>
    <desc>Created with Sketch.</desc>
    <g id="Artboard" stroke="none" stroke-width="1" fill="none" fill-rule="evenodd">
        <g id="logo_new" transform="translate(223.000000, 279.000000)" fill-rule="nonzero">
            <path d="M136.337242,115.626934 C136.04986,113.222029 135.327175,110.882524 134.197862,108.725034 L110.787102,64.0000018 L134.197862,19.2749668 C137.443494,13.0743575 137.114844,5.9505221 133.948997,0.259715918 L204.700354,0.259715918 C201.76097,1.808754 198.486605,2.85451969 195.301,3.4 L198.723,8.887 C205.478277,7.26913963 211.154836,4.40870673 215.246872,0.259715918 L218.740281,0.259715918 C224.263129,0.259715918 228.740281,4.73687132 228.740281,10.2597159 L228.740281,10.893 L203.679,10.893 L203.679,31.012 L228.740281,31.012 L228.740281,36.228 L223.798,36.228 C223.857,38.175 223.975,40.122 223.975,42.069 L228.740281,42.069 L228.740281,48.677 L223.975,48.677 C223.975,50.565 223.857,52.512 223.798,54.459 L228.740281,54.459 L228.740281,62.4202189 C226.31947,61.8054063 223.477376,61.48 220.258,61.48 C208.871,61.48 202.263,65.551 202.263,72.1 C202.263,78.472 208.871,82.602 220.258,82.602 C223.477376,82.602 226.31947,82.2718776 228.740281,81.6542997 L228.740281,94.6951201 C224.969867,92.1023961 222.146,88.518818 222.146,84.514 L222.146,82.921 L215.007,82.921 L215.007,84.514 C215.007,92.302 205.626,97.966 196.835,98.851 L199.726,104.279 C207.337,103.158 215.892,98.379 218.547,92.361 C220.167266,96.0336021 224.226568,99.2887114 228.740281,101.509484 L228.740281,107.347 L194.77,107.347 L194.77,112.834 L215.597,112.834 L215.597,122.156 L222.441,122.156 L222.441,112.834 L228.740281,112.834 L228.740281,117.738242 C228.740281,119.353479 228.349014,120.944678 227.599951,122.375725 C226.5353,124.409684 224.869045,125.924797 222.93385,126.817 L214.547363,126.817 C214.398218,126.747972 214.249988,126.674956 214.102798,126.597911 L207.75,123.272618 L207.75,117.259 L200.847,117.259 L200.847,119.659329 L169.377765,103.187152 C166.473043,101.666711 163.00752,101.666711 160.102798,103.187152 L136.337242,115.626934 Z M126.010504,121.032336 L115.377764,126.597911 C113.946718,127.346975 112.355518,127.738242 110.740281,127.738242 C105.217433,127.738242 100.740281,123.261089 100.740281,117.738242 L100.740281,10.2597188 C100.740281,4.73687132 105.217433,0.259718816 110.740281,0.259718816 L118.742793,0.259718816 C119.565006,0.450854828 120.362695,0.746019423 121.116006,1.14033039 C126.009066,3.70154174 127.899404,9.74442303 125.338192,14.6374835 L101.927433,59.3625168 C100.406992,62.2672386 100.406992,65.7327617 101.927433,68.6374835 L125.338192,113.362517 C126.087256,114.793563 126.478523,116.384763 126.478523,118 C126.478523,119.057111 126.314496,120.07591 126.010504,121.032336 Z M228.740281,16.262 L228.740281,25.643 L210.641,25.643 L210.641,16.262 L228.740281,16.262 Z M228.740281,68.5589409 L228.740281,75.564739 C226.867064,76.5317512 223.985313,77.056 220.258,77.056 C213.414,77.056 209.284,75.227 209.284,72.1 C209.284,68.914 213.414,67.026 220.258,67.026 C223.985313,67.026 226.867064,67.5671601 228.740281,68.5589409 Z M222.146,45.668 C222.146,38.352 216.187,33.101 208.576,33.101 C200.906,33.101 194.947,38.411 194.947,45.668 C194.947,53.102 201.024,57.763 208.576,57.763 C216.246,57.763 222.146,53.102 222.146,45.668 Z M215.538,45.609 C215.538,49.562 212.647,52.512 208.576,52.512 C204.446,52.512 201.673,49.68 201.673,45.609 C201.673,41.892 204.387,38.765 208.576,38.765 C212.883,38.765 215.538,41.774 215.538,45.609 Z" id="Combined-Shape" fill="#0079FF"></path>
            <path d="M126.338192,113.362517 C127.087256,114.793563 127.478523,116.384763 127.478523,118 C127.478523,123.522848 123.00137,128 117.478523,128 L10,128 C4.4771525,128 0,123.522848 0,118 L0,10.0000001 C0,4.47715264 4.4771525,1.34585434e-07 10,1.34585434e-07 L117.478523,1.34585434e-07 C119.09376,1.34585434e-07 120.684959,0.391266888 122.116006,1.14033039 C127.009066,3.70154174 128.899404,9.74442303 126.338192,14.6374835 L102.927433,59.3625168 C101.406992,62.2672386 101.406992,65.7327617 102.927433,68.6374835 L126.338192,113.362517 Z M22.7421875,93.7265626 C22.7421875,95.7239685 22.9876278,97.492831 23.4785156,99.0332033 C23.9694035,100.573576 24.5787724,101.766923 25.3066406,102.613281 C26.0345088,103.45964 26.8977815,104.14518 27.8964844,104.669922 C28.8951873,105.194664 29.8092406,105.533202 30.6386719,105.685547 C31.4681031,105.837892 32.3229123,105.914063 33.203125,105.914063 C34.8619875,105.914063 36.334629,105.558597 37.6210938,104.847656 C38.9075585,104.136715 39.8385388,103.273443 40.4140625,102.257813 L40.5664062,102.257813 L40.5664062,105 L48.3359375,105 L48.3359375,74.4296876 L40.2109375,74.4296876 L40.2109375,91.3906251 C40.2109375,93.4557396 39.7454474,95.2415291 38.8144531,96.748047 C37.8834589,98.254565 36.6054769,99.0078126 34.9804688,99.0078126 C32.2382675,99.0078126 30.8671875,96.959656 30.8671875,92.8632814 L30.8671875,74.4296876 L22.7421875,74.4296876 L22.7421875,93.7265626 Z M51.8398438,105 L61.3867188,105 L64.9921875,98.7031251 C65.4322939,97.9583297 66.194005,96.6041766 67.2773438,94.6406251 L67.4296875,94.6406251 C68.1067742,95.8255269 68.8684854,97.17968 69.7148438,98.7031251 L73.3203125,105 L82.8671875,105 L72.0507812,89.4101564 L82.359375,74.4296876 L72.5078125,74.4296876 L69.359375,80.2695314 C69.1223946,80.7096378 68.7500025,81.4205681 68.2421875,82.4023439 C67.7343725,83.3841196 67.4635418,83.908854 67.4296875,83.9765626 L67.2773438,83.9765626 C66.8710917,83.2994759 66.2109421,82.0638112 65.296875,80.2695314 L62.1992188,74.4296876 L52.3476562,74.4296876 L62.65625,89.4101564 L51.8398438,105 Z" id="Combined-Shape" fill="#FF0046"></path>
        </g>
        <g id="logo_main" transform="translate(223.000000, 19.000000)">
            <path d="M606.702707,138.082845 C606.702707,154.873375 608.923406,169.444707 601.226098,176.102299 C595.874716,180.733303 587.651453,179.619517 583.276844,174.050588 L527.984794,103.706225 C525.573761,100.638631 521.894257,98.8485104 518,98.8485104 C514.105743,98.8485104 510.426239,100.638631 508.015206,103.706225 L452.723156,174.050588 C448.348547,179.619517 440.133633,180.750051 434.773902,176.102299 C427.076594,169.402836 429.297293,154.881749 429.297293,138.082845 L429.297293,14.754103 C429.297293,7.71020641 434.98988,2 442.012043,2 L593.954563,2 C600.976726,2 606.669313,7.71020641 606.669313,14.754103 L606.702707,138.082845 Z" id="Path" fill="#007AFF" fill-rule="nonzero"></path>
            <path d="M216.443529,10.2647565 C218.378404,4.5021936 224.518071,1.12327431 232.098425,1.00618305 C235.013302,0.96436474 248.063237,1.1483653 251.572815,1.1483653 L355.436226,1.1483653 C358.945804,1.1483653 371.987363,0.96436474 374.902239,1.00618305 C382.440713,1.11491065 388.613885,4.49382994 390.54876,10.2563928 C392.860558,12.9411282 392.307737,23.3957052 389.526878,25.5869845 L354.347335,81.3726075 C351.105792,83.881706 351.105792,96.0675609 354.347335,98.6184777 L389.526878,154.412464 C392.307737,156.603744 392.87731,167.075048 390.54876,169.759783 C388.789783,175.321618 383.060543,178.742356 375.982754,178.959811 C372.816595,179.068539 356.935545,178.851084 352.982034,178.851084 L259.421203,178.851084 C251.045122,178.851084 226.134655,179.963451 222.800975,176.107803 C218.269854,173.687439 216.24358,168.283698 218.068489,163.487037 C217.674813,162.650671 220.581313,159.305206 220.581313,158.293203 L252.653329,104.096676 C255.894873,101.587578 255.894873,88.4482652 252.653329,85.8973484 L217.473787,26.414987 C214.684552,24.2571623 214.13173,12.9494918 216.443529,10.2647565 Z" id="Path" stroke="#000000" stroke-width="2"></path>
            <path d="M136.082845,177.702707 C152.873375,177.702707 167.444707,179.923406 174.102299,172.226098 C178.733303,166.874716 177.619517,158.651453 172.050588,154.276844 L101.706225,98.9847942 C98.6386308,96.5737612 96.8485104,92.8942566 96.8485104,89 C96.8485104,85.1057434 98.6386308,81.4262388 101.706225,79.0152058 L172.050588,23.7231558 C177.619517,19.348547 178.750051,11.1336327 174.102299,5.77390206 C167.402836,-1.92340582 152.881749,0.297292549 136.082845,0.297292549 L12.754103,0.297292549 C5.71020641,0.297292549 0,5.98988022 0,13.012043 L0,164.954563 C0,171.976726 5.71020641,177.669313 12.754103,177.669313 L136.082845,177.702707 Z" id="Path" fill="#FF154D" fill-rule="nonzero"></path>
            <path d="M469.677896,152.214568 L452.852734,169.074816 C469.24263,160.582514 482.600997,147.22289 491.0925,130.831451 L474.233838,147.6917 L491.0925,130.831451 C495.804963,121.724913 498.896762,111.867636 500.22951,101.700828 L464.217465,137.716262 L500.22951,101.700828 C500.742046,97.8131916 501,93.896156 501,89.974873 C501,87.0685112 500.857627,84.1872765 500.581255,81.3479202 L454.251341,127.682195 L500.58963,81.3730472 C500.045229,75.6974215 498.954224,70.0876125 497.331796,64.6216827 L444.226593,117.715133 L497.298297,64.638434 C495.836427,59.6946195 493.944864,54.8881955 491.645243,50.2741389 L434.235344,107.689441 L491.645243,50.2741389 C489.476772,45.926533 486.955875,41.7638616 484.107839,37.827875 L424.244095,97.697252 L484.107839,37.827875 C481.327432,33.9936946 478.246955,30.3863956 474.895455,27.0399962 L414.244472,87.7301901 L474.90383,27.0651233 C471.557721,23.7133342 467.950764,20.6325682 464.116966,17.8518728 L404.278348,77.7380011 L464.142091,17.8686241 C460.206475,15.0203191 456.044195,12.4991858 451.696998,10.3305101 L394.228475,67.7458122 L451.638374,10.3305101 C447.035526,8.03248277 442.240837,6.14077077 437.30893,4.67692452 L384.270726,57.7536232 L437.34243,4.67692452 C431.877014,3.05434424 426.267733,1.96323638 420.592641,1.41878411 L374.279477,47.7614342 L420.609391,1.41878411 C417.770302,1.1423866 414.897713,1 411.98325,1 C408.062336,1 404.145669,1.25797781 400.258398,1.77056277 L364.246354,37.7859966 L400.258398,1.77056277 C390.098292,3.10532961 380.247766,6.19737079 371.147266,10.9084321 L354.288604,27.7686806 L371.147266,10.9084321 C354.75737,19.4007349 341.399003,32.7603584 332.9075,49.1517975 L349.766162,32.291549 L332.9075,49.1517975 C328.195195,58.2584007 325.103405,68.1156499 323.77049,78.2824205 L359.782535,42.2669866 L323.77049,78.2824205 C323.257954,82.170057 323,86.0870926 323,90.0083757 C323,92.9147374 323.142373,95.7959721 323.418745,98.6353284 L369.757034,52.2843027 L323.42712,98.6185771 C323.971521,104.294203 325.062526,109.904012 326.684953,115.369942 L379.756658,62.293243 L326.676579,115.35319 C328.140247,120.285575 330.031782,125.080718 332.329632,129.683983 L389.739531,72.2686806 L332.329632,129.683983 C334.498104,134.031589 337.019,138.19426 339.867037,142.130247 L399.73078,82.2608696 L339.867037,142.130247 C342.647443,145.964427 345.727921,149.571726 349.07942,152.918125 L409.738779,92.2530585 L349.07942,152.918125 C352.425529,156.269914 356.032486,159.35068 359.866284,162.131376 L419.730027,102.261999 L359.891409,162.114625 C363.827025,164.962929 367.989305,167.484063 372.336501,169.652739 L429.712901,112.254188 L372.303002,169.66949 C376.905833,171.967556 381.700525,173.85927 386.632446,175.323075 L439.70415,122.246377 L386.632446,175.323075 C392.097874,176.945605 397.70715,178.036712 403.382234,178.581216 L449.712148,132.246941 L403.382234,178.581216 C406.221323,178.857613 409.093912,179 412.008375,179 C415.929288,179 419.845954,178.741998 423.733227,178.229437 L459.745271,142.214003 L423.733227,178.229437 C433.897204,176.890198 443.750662,173.792458 452.852734,169.074816 L469.677896,152.214568 Z" id="Path" stroke="#000000" stroke-width="2"></path>
            <path d="M251.705506,152.221684 L234.843671,169.082726 C251.236652,160.590023 264.597533,147.229771 273.090635,130.837561 L250.758965,153.16818 L273.090635,130.837561 C277.803827,121.730529 280.896199,111.872816 282.229365,101.705567 L240.765835,143.167145 L282.229365,101.705567 C282.741974,97.817745 283,93.9005266 283,89.9790598 C283,87.0725613 282.8576,84.191191 282.581176,81.3517011 L229.516235,134.414145 L282.581176,81.3517011 C282.036673,75.6758083 280.945462,70.0657353 279.322729,64.5995483 L221.717741,122.201826 L279.322729,64.5995483 C277.858286,59.669806 275.966404,54.8772619 273.668612,50.2764576 L211.682729,112.259423 L273.668612,50.2764576 C271.499765,45.9286289 268.978393,41.7657591 266.129788,37.829608 L200.793318,103.163004 L266.129788,37.829608 C263.348831,33.995269 260.267775,30.3878024 256.915671,27.0412216 L190.741553,93.2122253 L256.915671,27.0412216 C253.568932,23.6892748 249.961296,20.6083638 246.126776,17.8275375 L179.843765,84.1074302 L246.126776,17.8275375 C242.19044,14.9790672 238.027374,12.4578136 233.679341,10.2890687 L171.693459,72.2720343 L233.679341,10.2890687 C229.075626,7.99093332 224.280035,6.09913229 219.3472,4.63521717 L161.750588,62.2793751 L219.355576,4.67709755 C213.889132,3.05444091 208.278795,1.9632817 202.602635,1.41880382 L151.757459,52.2867159 L202.619388,1.41880382 C199.779765,1.1423933 196.906635,1 193.991624,1 C190.069972,1 186.15257,1.25801383 182.264565,1.77059903 L140.918306,43.1316644 L182.281318,1.77059903 C172.11359,3.10370158 162.255413,6.1959284 153.147953,10.9088984 L130.824659,33.2395181 L153.147953,10.9088984 C136.754971,19.4016007 123.39409,32.7618529 114.900988,49.1540633 L131.762824,32.2930215 L114.909365,49.1540633 C110.196173,58.2610951 107.103801,68.1188082 105.770635,78.2860571 L141.789459,42.2689285 L105.770635,78.2860571 C105.258026,82.173879 105,86.0910973 105,90.0125641 C105,92.9190626 105.1424,95.8004329 105.418824,98.6399228 L151.757459,52.2867159 L105.418824,98.6231707 C105.963379,104.299056 107.054588,109.909124 108.677271,115.375324 L161.750588,62.2793751 L108.668894,115.358571 C110.132878,120.291175 112.024768,125.08654 114.323012,129.690038 L171.743718,72.2720343 L114.323012,129.690038 C116.491924,134.037831 119.013294,138.200695 121.861835,142.136888 L181.736847,82.2646934 L121.861835,142.136888 C124.642737,145.97127 127.723797,149.578741 131.075953,152.925274 L191.746729,92.2573526 L131.075953,152.925274 C134.422667,156.277247 138.030306,159.35816 141.864847,162.138958 L201.739859,102.266764 L141.864847,162.138958 C145.801225,164.987366 149.964285,167.508616 154.312282,169.677427 L211.724612,112.259423 L154.303906,169.677427 C158.907621,171.975562 163.703212,173.867363 168.636047,175.331279 L221.717741,122.252082 L168.636047,175.331279 C174.102516,176.953834 179.712843,178.044991 185.388988,178.589572 L231.727624,132.253118 L185.372235,178.581196 C188.211859,178.857607 191.084988,179 194,179 C197.921652,179 201.839056,178.74201 205.727059,178.229401 L241.745882,142.212272 L205.727059,178.229401 C215.894786,176.896298 225.752963,173.804072 234.860424,169.091102 L251.705506,152.221684 Z" id="Path" stroke="#000000" stroke-width="2"></path>
        </g>
        <g id="logo_human_2" transform="translate(223.000000, 488.000000)" fill="#162330" fill-rule="nonzero">
            <path d="M26.401,0.985 L15.9036204,19.1680633 C16.5843542,19.0481266 17.2848718,18.9855716 18,18.9855716 C20.8245748,18.9855716 23.4212184,19.9614612 25.4711543,21.594464 L31.019,0.985 L55.3125,0.985 C57.9013348,0.985 60,3.09278813 60,5.69217146 L60,56.2780118 C60,57.0382392 59.8165937,57.7871529 59.4654702,58.4606895 C58.2649024,60.763657 55.4323018,61.6533635 53.1386797,60.4479035 L32.0038906,55.3600436 C31.2623384,54.9703056 30.4428135,54.7928279 29.6302474,54.8276104 L25.6920966,40.1963625 C23.6093319,41.9375865 20.927051,42.9855716 18,42.9855716 C17.504274,42.9855716 17.0155687,42.9555124 16.5356074,42.8971171 L24.217,56.201 L6.86132022,60.4479035 C6.19051741,60.800458 5.44464241,60.9846117 4.68750006,60.9846117 C2.09866506,60.9846117 -1.42108547e-14,58.8773949 -1.42108547e-14,56.2780118 L-1.42108547e-14,5.69217146 C-1.42108547e-14,3.09278813 2.09866506,0.985 4.68750006,0.985 L26.401,0.985 Z M15.9311011,25.351813 L15.8620467,25.377666 C15.8375611,25.3870063 15.8131524,25.3965024 15.7888219,25.406153 C15.7603573,25.4174435 15.7320257,25.4289347 15.7038027,25.4406351 C15.5441698,25.5068024 15.3876794,25.5798358 15.235032,25.6592388 C15.2254809,25.6642065 15.2157471,25.6693035 15.206029,25.6744263 C15.1440623,25.7070921 15.0827607,25.740797 15.0221233,25.7755299 C14.9992091,25.7886583 14.9769283,25.8016155 14.9547391,25.8147116 C13.1864645,26.8582005 12,28.7833292 12,30.9855716 C12,32.6670276 12.6916646,34.1869367 13.8059993,35.2763043 L13.8059993,35.2763043 L13.8551822,35.3238433 C13.8875554,35.3547818 13.9202744,35.3853614 13.9533327,35.415576 L13.8059993,35.2763043 C13.8826968,35.3512834 13.9613966,35.4242228 14.042011,35.4950349 C14.1577308,35.5966695 14.277056,35.693666 14.4000468,35.7860462 C14.4223463,35.8027969 14.4449428,35.8195246 14.4676601,35.8360966 C14.5158685,35.8712603 14.5643704,35.9055512 14.6133962,35.9391332 C14.6372107,35.9554487 14.6615577,35.9718684 14.6860307,35.9881132 C14.7234459,36.012944 14.7606902,36.0370721 14.7982159,36.0607954 C14.8329562,36.0827596 14.8681165,36.104485 14.9035155,36.125855 C15.0387605,36.2075107 15.1777733,36.284122 15.3200066,36.3552483 C15.3479563,36.3692244 15.3759259,36.3829384 15.4040167,36.3964401 C15.4553135,36.4210956 15.5070071,36.4450395 15.5590925,36.4682631 C15.5777271,36.4765706 15.596143,36.4846694 15.614607,36.492678 C15.6778401,36.5201106 15.7420622,36.5466526 15.8068341,36.5721008 C15.826861,36.579969 15.846918,36.5877242 15.8670269,36.5953743 C16.0226442,36.6545768 16.18136,36.7074894 16.3428655,36.7538025 C16.3665091,36.7605809 16.3898422,36.7671165 16.4132323,36.7735142 C16.4769738,36.7909516 16.5413796,36.8074217 16.6061929,36.8228402 C16.6247978,36.8272675 16.6438424,36.8317007 16.6629216,36.8360429 C16.7458588,36.8549105 16.8289008,36.8719592 16.9125491,36.8872733 C16.9346862,36.8913278 16.957313,36.8953375 16.9799833,36.89922 C17.0379523,36.9091453 17.0959516,36.9182031 17.1542198,36.9264239 C17.1916287,36.9317006 17.2289658,36.93661 17.2664094,36.9411746 C17.3338707,36.9493999 17.4018152,36.9565177 17.4700876,36.9624921 C17.4777917,36.9631658 17.485143,36.9637951 17.492498,36.9644111 L17.552213,36.9691144 L17.552213,36.9691144 L17.7750617,36.9814331 L17.7750617,36.9814331 L18,36.9855716 C18.0803774,36.9855716 18.1603856,36.9839911 18.2399953,36.9808595 L18,36.9855716 C18.0996855,36.9855716 18.1988032,36.9831406 18.2972971,36.9783346 C18.3589506,36.9753178 18.4195374,36.9714358 18.479873,36.9666613 C18.5099285,36.9642849 18.5403093,36.9616504 18.5706245,36.9587904 C18.6128885,36.9548014 18.6547935,36.9504009 18.6965677,36.9455713 C18.732178,36.9414556 18.7679137,36.9369987 18.8035503,36.9322289 C18.874884,36.9226779 18.9455381,36.9119217 19.0157759,36.8999448 L19.0158731,36.8999282 C19.0605516,36.8923096 19.1051582,36.8841783 19.1495898,36.8755568 C19.1968917,36.8663773 19.2438708,36.8566694 19.2906455,36.8464158 L19.3153868,36.8409371 L19.3153868,36.8409371 L19.4513602,36.8088462 C19.4644944,36.8055834 19.4776115,36.8022773 19.4907113,36.7989281 C19.5337411,36.7879263 19.5765199,36.7764775 19.6191074,36.7645706 C19.6475279,36.7566245 19.67584,36.7484812 19.7040653,36.7401359 C19.991443,36.6551703 20.2698692,36.5492463 20.5375363,36.4241438 C20.5757116,36.4062996 20.6134663,36.3881649 20.6509994,36.3696493 C20.6814868,36.3546088 20.7117576,36.3393533 20.7418802,36.3238504 C20.7698125,36.3094762 20.7978496,36.2947651 20.825755,36.2798397 C20.871901,36.2551565 20.9175272,36.2299783 20.9627856,36.2042284 C20.9779219,36.1956176 20.9933011,36.186778 21.0086373,36.1778724 C21.054008,36.1515219 21.0986667,36.1248003 21.1429441,36.0975195 C21.1675479,36.0823615 21.1922213,36.0669117 21.2167735,36.0512883 C21.2546042,36.0272163 21.2922483,36.0026646 21.3295965,35.9777049 C21.3525322,35.9623757 21.3751583,35.947029 21.3976734,35.9315325 C21.4449005,35.8990291 21.4917584,35.8657794 21.5381117,35.8318809 C21.5521834,35.82159 21.566178,35.8112621 21.580126,35.800875 C21.6221224,35.7696009 21.6637498,35.7377479 21.7049428,35.7053672 C21.7223827,35.6916553 21.7392491,35.6782472 21.7560413,35.6647506 C21.7963003,35.6324022 21.8367935,35.5989856 21.8768358,35.5650533 C21.9168556,35.5311369 21.9562227,35.4968859 21.995134,35.4621351 C22.1993347,35.2797899 22.3912191,35.0834033 22.5690538,34.8746797 C22.5772023,34.8651174 22.5856375,34.8551534 22.5940407,34.8451615 C22.6795916,34.7434243 22.7616068,34.6391026 22.8401578,34.5320797 C22.858054,34.5076951 22.8756525,34.483336 22.8930716,34.4588406 C22.9117654,34.4325547 22.9303791,34.4059279 22.9487809,34.3791441 C22.9718935,34.3455018 22.9945732,34.3117622 23.016917,34.277782 C23.2185616,33.9711405 23.3929124,33.6447565 23.5364051,33.3022399 C23.5512425,33.2668345 23.565999,33.2306287 23.5804101,33.1942484 C23.5947915,33.1579333 23.6086406,33.1219479 23.622151,33.0857973 C23.6312224,33.0615284 23.6402427,33.0369017 23.6491056,33.0122001 C23.6651372,32.9675133 23.6805808,32.9228003 23.6955073,32.8778513 L23.7102256,32.8329333 L23.7102256,32.8329333 C23.8985901,32.249566 24,31.6294116 24,30.9855716 C24,30.1823757 23.842178,29.4160412 23.5558533,28.7158871 L23.5550352,28.7138878 C23.4951336,28.5675608 23.4296184,28.4241267 23.3587574,28.2838532 L23.3496144,28.2658298 C23.2854516,28.1398754 23.2169713,28.0164884 23.1443684,27.895864 C23.1241089,27.8622092 23.1037326,27.8290939 23.0830457,27.7961936 C23.0615124,27.7619479 23.0396683,27.7279742 23.0174932,27.6942376 C23.0004486,27.6683022 22.9829553,27.6421348 22.9652629,27.6161138 C22.9409613,27.5803752 22.916419,27.5451024 22.8915105,27.5101083 C22.8766309,27.4892047 22.86168,27.4684815 22.8466006,27.4478583 C22.8147387,27.4042792 22.7821763,27.3609819 22.7490472,27.318145 C22.7367449,27.3022391 22.7245194,27.286593 22.7122183,27.2710094 C22.6789537,27.2288672 22.6450786,27.1871131 22.6106594,27.1458285 C22.5941175,27.1259821 22.5769699,27.1056832 22.5596905,27.0855005 C22.5267501,27.0470367 22.4939374,27.0096676 22.460672,26.972714 C22.4473099,26.9578671 22.4334319,26.9426052 22.4194766,26.9274154 C22.1637151,26.6490775 21.8824263,26.3952898 21.579075,26.1694857 C21.5660611,26.1597989 21.5530932,26.1502271 21.5400855,26.1407064 C21.4898652,26.103948 21.4390208,26.0679302 21.3875998,26.0326924 C21.3728802,26.022603 21.3575912,26.0122266 21.3422519,26.0019191 C21.3000174,25.9735463 21.2580286,25.9460943 21.2156792,25.9191588 C21.1909081,25.9034002 21.1655195,25.8875141 21.1400046,25.8718137 C21.0989453,25.846549 21.0576242,25.8218032 21.0159845,25.7975442 C20.9937905,25.7846155 20.9717392,25.771957 20.9496004,25.7594351 C20.8959651,25.7290974 20.8417306,25.6995164 20.7869973,25.670756 C20.7792701,25.6666957 20.7715712,25.6626717 20.7638625,25.6586639 C20.7097866,25.6305481 20.6551239,25.6031811 20.599993,25.5766321 C20.5806238,25.5673047 20.5612044,25.5580818 20.541728,25.5489605 C20.513134,25.5355702 20.4845687,25.5224669 20.4558839,25.5095824 C20.383915,25.4772509 20.3108795,25.4461703 20.2371187,25.4165126 C20.2009328,25.4019628 20.1645453,25.3877452 20.1279871,25.3738745 C20.1077065,25.3661818 20.0878533,25.358772 20.0679506,25.3514647 C20.0190488,25.3335096 19.9697854,25.3161518 19.9202322,25.2994235 C19.8879635,25.2885245 19.8546769,25.2776074 19.8212633,25.2669752 C19.7817879,25.2544167 19.7424935,25.2423615 19.7030296,25.2307011 C19.6643323,25.2192687 19.6256692,25.2082699 19.586849,25.1976512 C19.5560249,25.1892188 19.5249444,25.1809857 19.4937659,25.1729969 C19.4495272,25.1616624 19.4051985,25.1508446 19.3606799,25.1405222 C19.330409,25.1335034 19.3000531,25.1267143 19.2696114,25.1201562 C19.2311416,25.1118679 19.1924365,25.1039293 19.1535975,25.0963654 C19.1025674,25.0864273 19.0512991,25.0771347 18.9998085,25.0684979 C18.980378,25.0652402 18.9613423,25.062143 18.9422768,25.0591357 C18.8807797,25.0494297 18.8184344,25.0405902 18.7557884,25.0327166 C18.7381131,25.0304951 18.7204271,25.028352 18.7027175,25.0262861 C18.6654353,25.0219377 18.6281688,25.0179427 18.5908017,25.0142906 C18.4698483,25.0024694 18.3478656,24.9942407 18.2249383,24.9897101 L18,24.9855716 L18,24.9855716 C17.9125305,24.9855716 17.8254982,24.9874433 17.7389409,24.9911488 L18,24.9855716 C17.8730951,24.9855716 17.7471104,24.9895114 17.6221616,24.9972755 C17.574163,25.0002599 17.5265456,25.0037889 17.4790861,25.0078704 C17.4435226,25.0109299 17.408216,25.0142821 17.373,25.0179389 C17.1980201,25.0360984 17.0249362,25.0618439 16.8544258,25.0948086 C16.8304429,25.0994446 16.8063759,25.1042513 16.7823613,25.1092015 C16.7182004,25.1224279 16.6544833,25.136662 16.5911572,25.1519005 C16.5682276,25.1574177 16.5452445,25.1630931 16.5223139,25.1689006 C16.4512509,25.1869 16.3808223,25.2061296 16.3109224,25.2265973 C16.2962402,25.2308957 16.2813231,25.2353265 16.2664303,25.2398137 C16.1978837,25.2604708 16.1301531,25.2822189 16.0629589,25.3051258 L16.0028971,25.3259598 C15.9788947,25.3344296 15.9549623,25.3430476 15.9311011,25.351813 Z" id="Combined-Shape"></path>
            <path d="M79,42.8172043 L85.7269076,40.0573477 C86.028114,41.2951077 86.6388843,42.4074025 87.5592369,43.3942652 C88.4795896,44.381128 89.6090964,44.874552 90.9477912,44.874552 C94.0602565,44.874552 95.6164659,42.61651 95.6164659,38.1003584 L95.6164659,10 L104,10 L104,39.1039427 C104,43.1517526 102.870493,46.3130113 100.611446,48.5878136 C98.3523983,50.8626159 95.1814127,52 91.0983936,52 C87.785124,52 85.1077746,51.080057 83.0662651,49.2401434 C81.0247555,47.4002297 79.6693474,45.2592715 79,42.8172043 Z M117,36 C117,39.2459179 117.624466,41.5573702 118.873418,42.9344262 C120.122369,44.3114823 121.506322,45 123.025316,45 C123.66667,45 124.299575,44.8606571 124.924051,44.5819672 C125.548526,44.3032773 126.181431,43.8606588 126.822785,43.2540984 C127.464138,42.647538 127.98734,41.7131211 128.392405,40.4508197 C128.79747,39.1885183 129,37.7049266 129,36 C129,34.2622864 128.805909,32.770498 128.417722,31.5245902 C128.029534,30.2786823 127.506332,29.3442654 126.848101,28.7213115 C126.18987,28.0983575 125.548526,27.655739 124.924051,27.3934426 C124.299575,27.1311462 123.66667,27 123.025316,27 C121.506322,27 120.122369,27.6803211 118.873418,29.0409836 C117.624466,30.4016461 117,32.7212951 117,36 Z M109,36 C109,33.9268444 109.264304,31.9623917 109.79292,30.1065831 C110.321537,28.2507744 111.122708,26.5538217 112.19646,25.015674 C113.270212,23.4775263 114.740404,22.2570578 116.60708,21.354232 C118.473756,20.4514061 120.612967,20 123.024779,20 C125.43659,20 127.567542,20.4514061 129.417699,21.354232 C131.267856,22.2570578 132.729788,23.4775263 133.80354,25.015674 C134.877292,26.5538217 135.678463,28.2507744 136.20708,30.1065831 C136.735696,31.9623917 137,33.9268444 137,36 C137,37.3375197 136.884367,38.6666601 136.653097,39.9874608 C136.421828,41.3082616 135.984074,42.7126362 135.339823,44.200627 C134.695572,45.6886177 133.877881,46.9926799 132.886726,48.1128527 C131.89557,49.2330255 130.549271,50.1609159 128.847788,50.8965517 C127.146304,51.6321876 125.205321,52 123.024779,52 C120.877275,52 118.96107,51.6489063 117.276106,50.9467085 C115.591142,50.2445106 114.236583,49.3500577 113.212389,48.2633229 C112.188195,47.1765881 111.353986,45.9059634 110.709735,44.4514107 C110.065484,42.9968579 109.61947,41.5841239 109.371681,40.2131661 C109.123893,38.8422084 109,37.4378337 109,36 Z M140,44.5768025 L145.46875,41.2664577 C147.454437,44.1421251 149.944646,45.5799373 152.939453,45.5799373 C154.176438,45.5799373 155.144853,45.304078 155.844727,44.7523511 C156.5446,44.2006242 156.894531,43.523515 156.894531,42.7210031 C156.894531,42.4534992 156.853842,42.1859992 156.772461,41.9184953 C156.69108,41.6509913 156.560873,41.4085695 156.381836,41.1912226 C156.202799,40.9738756 156.015626,40.78161 155.820312,40.6144201 C155.624999,40.4472301 155.356447,40.2716833 155.014648,40.0877743 L154.532471,39.8369905 C154.381918,39.7617555 154.241537,39.6948801 154.111328,39.6363636 L153.755859,39.4838871 C153.623047,39.4290492 153.475912,39.3701988 153.314454,39.3073357 L153.061523,39.2100313 C152.709959,39.0762794 152.405274,38.969279 152.147461,38.8890283 L151.556641,38.7134797 C151.326173,38.6432604 151.054689,38.5579942 150.742188,38.4576803 L149.874132,38.1678858 C149.758391,38.1270174 149.657118,38.0898643 149.570312,38.0564263 C147.096342,37.2204765 145.118823,36.133758 143.637695,34.7962382 C142.156568,33.4587185 141.416016,31.5026252 141.416016,28.9278997 C141.416016,26.1859842 142.563465,24.0125472 144.858398,22.4075235 C147.153332,20.8024998 149.863266,20 152.988281,20 C155.4297,20 157.765288,20.6603905 159.995117,21.9811912 C162.224946,23.301992 163.893224,25.0323822 165,27.1724138 L159.873047,30.2821317 C157.789703,27.7074061 155.527356,26.4200627 153.085938,26.4200627 C151.914057,26.4200627 150.994469,26.6708439 150.327148,27.1724138 C149.659827,27.6739837 149.326172,28.3092961 149.326172,29.0783699 C149.326172,29.4461878 149.391275,29.7889221 149.521484,30.1065831 C149.651693,30.424244 149.871418,30.7168221 150.180664,30.984326 C150.48991,31.25183 150.782876,31.4858924 151.05957,31.6865204 C151.336264,31.8871483 151.743161,32.0877733 152.280273,32.2884013 L153.549805,32.7648903 C153.726517,32.8317663 153.964345,32.9150192 154.263292,33.0146501 L156.36639,33.6963725 L156.36639,33.6963725 L156.503906,33.7429467 C162.102893,35.6823503 164.902344,38.7084434 164.902344,42.8213166 C164.902344,45.3626041 163.893239,47.5276818 161.875,49.3166144 C159.856761,51.1055471 156.959654,52 153.183594,52 C150.221339,52 147.576509,51.3228908 145.249023,49.968652 C142.921538,48.6144133 141.171881,46.8171481 140,44.5768025 Z M170,51 L170,9 L177.837302,9 L177.837302,22.9834123 L177.986111,22.9834123 C179.771834,21.0924076 182.053558,20.1469194 184.831349,20.1469194 C186.121038,20.1469194 187.336304,20.3459696 188.477183,20.7440758 C189.618061,21.1421821 190.692786,21.7642138 191.701389,22.6101896 C192.709992,23.4561654 193.511902,24.6670537 194.107143,26.242891 C194.702384,27.8187283 195,29.6682358 195,31.7914692 L195,51 L187.063492,51 L187.063492,32.6872038 C187.063492,28.8388433 185.839959,26.9146919 183.392857,26.9146919 C181.772479,26.9146919 180.441473,27.6362487 179.399802,29.0793839 C178.35813,30.5225191 177.837302,32.222739 177.837302,34.1800948 L177.837302,51 L170,51 Z M208,51 L208,10 L216.25,10 L216.25,26.6202686 L216.399096,26.6202686 L230.563253,10 L240.900602,10 L224.947289,28.021978 L241,51 L231.159639,51 L219.778614,33.8791209 L216.25,37.8840049 L216.25,51 L208,51 Z M244,18 L244,10 L252,10 L252,18 L244,18 Z M244,51 L244,21 L252,21 L252,51 L244,51 Z M259,51 L259,20.9 L266.602484,20.9 L266.602484,23.75 L266.652174,23.75 C266.983439,23.283331 267.405795,22.8083357 267.919255,22.325 C268.432715,21.8416642 269.252582,21.333336 270.378882,20.8 C271.505182,20.266664 272.66459,20 273.857143,20 C276.97103,20 279.30641,21.499985 280.863354,24.5 C282.751562,21.499985 285.633521,20 289.509317,20 C291.298146,20 292.830221,20.3166635 294.10559,20.95 C295.380959,21.5833365 296.366456,22.4749942 297.062112,23.625 C297.757767,24.7750057 298.254657,26.0083267 298.552795,27.325 C298.850933,28.6416732 299,30.099992 299,31.7 L299,51 L291.049689,51 L291.049689,31.85 C291.049689,30.1499915 290.801242,28.8833375 290.304348,28.05 C289.807451,27.2166625 288.979302,26.8 287.819876,26.8 C286.296059,26.8 285.095242,27.4416602 284.217391,28.725 C283.33954,30.0083397 282.900621,31.5333245 282.900621,33.3 L282.900621,51 L275.049689,51 L275.049689,31.65 C275.049689,30.1499925 274.7764,28.966671 274.229814,28.1 C273.683227,27.233329 272.879922,26.8 271.819876,26.8 C270.196679,26.8 268.9793,27.3916607 268.167702,28.575 C267.356104,29.7583392 266.950311,31.3333235 266.950311,33.3 L266.950311,51 L259,51 Z" id="JoshKim"></path>
        </g>
        <text id="2017" font-family="GothicA1-SemiBold, Gothic A1" font-size="60" font-weight="500" fill="#000000">
            <tspan x="24.953125" y="68">2017</tspan>
        </text>
        <text id="2018" font-family="GothicA1-SemiBold, Gothic A1" font-size="60" font-weight="500" fill="#000000">
            <tspan x="24.953125" y="328">2018</tspan>
        </text>
        <text id="2019" font-family="GothicA1-SemiBold, Gothic A1" font-size="60" font-weight="500" fill="#000000">
            <tspan x="24.953125" y="537">2019</tspan>
        </text>
    </g>
</svg>