<?xml version="1.0" encoding="UTF-8"?>
<svg width="110px" height="110px" viewBox="0 0 110 110" version="1.1" xmlns="http://www.w3.org/2000/svg" xmlns:xlink="http://www.w3.org/1999/xlink">
    <title>Combined-Shape</title>
    <g id="New-Logo" stroke="none" stroke-width="1" fill="none" fill-rule="evenodd">
        <path d="M48.403,0 L29.1559985,33.3361674 C30.4036362,33.1164366 31.6875171,33.0018338 32.9981662,33.0018338 C38.1765947,33.0018338 42.9371525,34.7908656 46.6954301,37.7845472 L56.868,0 L101.403835,0 C106.149919,0 109.99738,3.86332233 109.99738,8.62897195 L109.99738,101.371888 C109.99738,102.765671 109.661143,104.138713 109.017432,105.373559 C106.816444,109.595767 101.623466,111.226934 97.4185926,109.016871 L58.6724022,99.6889063 C57.3133068,98.9745717 55.811346,98.6491701 54.3220912,98.7127013 L47.0999015,71.8880078 C43.2815187,75.0797865 38.3641899,77.0007859 32.9981662,77.0007859 C32.0892909,77.0007859 31.193288,76.9456759 30.3133169,76.8386153 L44.397,101.23 L12.5787875,109.016871 C11.3490116,109.663237 9.98160669,110.00086 8.59354545,110.00086 C3.84746098,110.00086 0,106.137537 0,101.371888 L0,8.62897195 C0,3.86332233 3.84746098,0 8.59354545,0 L48.403,0 Z M32.9986901,43.0013099 C26.3712731,43.0013099 20.9986901,48.3738929 20.9986901,55.0013099 C20.9986901,61.6287269 26.3712731,67.0013099 32.9986901,67.0013099 C39.6261071,67.0013099 44.9986901,61.6287269 44.9986901,55.0013099 C44.9986901,48.3738929 39.6261071,43.0013099 32.9986901,43.0013099 Z" id="Combined-Shape" fill="#162330" fill-rule="nonzero"></path>
    </g>
</svg>