<?xml version="1.0" encoding="UTF-8"?>
<svg width="110px" height="89px" viewBox="0 0 110 89" version="1.1" xmlns="http://www.w3.org/2000/svg" xmlns:xlink="http://www.w3.org/1999/xlink">
    <title>Combined Shape</title>
    <g id="New-Logo" stroke="none" stroke-width="1" fill="none" fill-rule="evenodd">
        <path d="M108,0 C109.104569,-8.05134447e-15 110,0.8954305 110,2 L110,80.1545199 C109.999998,84.5727967 106.418277,88.1545177 102,88.1545177 C99.3529157,88.1545177 96.8772134,86.8451161 95.3873763,84.6570939 C81.9249175,64.885698 68.4624588,55 55,55 C46.2942061,55 37.5884123,59.1340462 28.8826184,67.4021386 C22.0330998,73.9072524 11.2070306,73.6280832 4.70190037,66.7785802 C1.68311969,63.5999894 -1.40989263e-15,59.3836601 0,55 L0,2 C-1.3527075e-16,0.8954305 0.8954305,2.02906125e-16 2,0 L108,0 Z M55,14 C46.7157288,14 40,20.7157288 40,29 C40,37.2842712 46.7157288,44 55,44 C63.2842712,44 70,37.2842712 70,29 C70,20.7157288 63.2842712,14 55,14 Z" id="Combined-Shape" fill="#000000" fill-rule="nonzero"></path>
    </g>
</svg>