<?xml version="1.0" encoding="UTF-8"?>
<svg width="284px" height="50px" viewBox="0 0 284 50" version="1.1" xmlns="http://www.w3.org/2000/svg" xmlns:xlink="http://www.w3.org/1999/xlink">
    <title>logo_human_2</title>
    <g id="Page-1" stroke="none" stroke-width="1" fill="none" fill-rule="evenodd">
        <g id="logo_human_2" fill="#162330" fill-rule="nonzero">
            <path d="M22.0018877,0 L13.2530423,15.1524425 C13.8201638,15.0525673 14.4037599,15.0004763 14.9995237,15.0004763 C17.3534109,15.0004763 19.5173524,15.8136532 21.2257011,17.1743852 L25.8497066,0 L46.0937501,0 C48.2511124,0 50,1.75601379 50,3.92216657 L50,46.0770336 C50,46.7105562 49.8471614,47.3346514 49.5545585,47.8959317 C48.5540856,49.8150714 46.1935848,50.5564933 44.2822332,49.5519431 L26.669909,45.3120601 C26.0521236,44.9873703 25.3693979,44.839464 24.6924478,44.8683412 L21.4095561,32.675589 C19.6738862,34.126363 17.4386835,34.9995237 14.9995237,34.9995237 C14.5863887,34.9995237 14.179105,34.9744743 13.7791086,34.9258116 L20.1809352,46.0125406 L5.71776687,49.5519431 C5.15876451,49.8457389 4.53720202,49.9992002 3.90625006,49.9992002 C1.74888756,49.9992002 0,48.2431861 0,46.0770336 L0,3.92216657 C0,1.75601379 1.74888756,0 3.90625006,0 L22.0018877,0 Z M14.9997619,19.5455845 C11.9872278,19.5455845 9.54508648,21.9876095 9.54508648,25 C9.54508648,28.0123906 11.9872278,30.4544156 14.9997619,30.4544156 C18.0122959,30.4544156 20.4544372,28.0123906 20.4544372,25 C20.4544372,21.9876095 18.0122959,19.5455845 14.9997619,19.5455845 Z" id="Combined-Shape"></path>
            <g id="Josh-Kim-[김영순]" transform="translate(70.000000, 1.000000)">
                <path d="M1.7947566,46.858774 C8.36536217,45.8029498 12.4835586,42.1764231 13.8717147,37.3104506 C14.4127396,35.2082186 14.5584002,31.3191468 14.5655143,25.7706271 L14.5657928,7.65556133 L18.2212705,7.05879112 L18.2212705,3.84541301 L2.720194,3.84541301 L2.720194,7.05879112 L6.65330298,7.70146673 L6.65330298,29.1851945 C6.65330298,34.0052617 6.32939987,36.3923425 5.72786558,38.2285586 C4.61734068,41.4878421 2.16493156,43.4617743 0.0364255319,44.1962608 L1.7947566,46.858774 Z M33.722347,38.4580856 C40.7093994,38.4580856 46.8172863,34.3725049 46.8172863,24.9159922 C46.8172863,16.6071146 42.0975555,11.7870474 34.3701532,11.7870474 C27.4293727,11.7870474 21.3214858,16.1480606 21.3214858,25.3291408 C21.3214858,33.6380184 26.0874884,38.4580856 33.722347,38.4580856 Z M34.1850657,35.2447075 C30.8534911,35.2447075 29.5116068,31.755897 29.5116068,24.778276 C29.5116068,17.9383712 31.1311223,15.0004255 34.0462501,15.0004255 C37.3778248,15.0004255 38.5808934,18.5351414 38.5808934,25.466857 C38.5808934,32.2608564 37.1001936,35.2447075 34.1850657,35.2447075 Z M61.1615661,38.4580856 C68.6576091,38.4580856 71.9429116,34.9233697 71.9429116,30.7000728 C71.9429116,25.9718165 67.8709874,23.9519788 63.9378782,22.3452897 C60.9302066,21.0140331 58.1076226,20.0959251 58.1076226,17.6170334 C58.1076226,15.8726281 59.5883223,14.8168039 61.9019159,14.8168039 C63.4751597,14.8168039 64.7244999,15.4135741 65.0021312,15.9185336 L66.2052,19.4532495 L70.3233965,19.4532495 L70.3233965,13.2101149 C68.7501527,13.0264933 66.2977437,11.8788582 61.531741,11.8788582 C54.9611355,11.8788582 51.1205704,15.0463309 51.1205704,19.2696278 C51.1205704,23.3093031 53.2953482,25.6504786 57.1359133,27.3489785 C61.1615661,29.1851945 64.446869,30.1951133 64.446869,32.5821942 C64.446869,34.1888833 63.1975284,35.4742345 60.5600317,35.4742345 C58.9405161,35.4742345 57.0896415,34.7856535 56.6731947,34.1429779 L55.5163977,30.5164512 L51.1205704,30.5164512 L51.1205704,36.6218695 C52.8326296,36.9891128 56.256748,38.4580856 61.1615661,38.4580856 Z M87.6753479,37.9531262 L87.6753479,34.9233697 L85.1303948,34.5102211 L85.1303948,18.2138036 C86.1946477,17.2497902 88.0455228,16.2398714 89.8963974,16.2398714 C92.8115254,16.2398714 93.4130594,17.8924658 93.4130594,21.9780465 L93.4130594,34.5102211 L90.9606504,34.9233697 L90.9606504,37.9531262 L103.82423,37.9531262 L103.82423,34.9233697 L101.001646,34.5102211 L101.001646,21.9321411 C101.001646,15.0922363 99.4746745,11.9247636 93.5518753,11.9247636 C89.3874071,11.9247636 86.1021041,13.9446013 84.5751321,15.3217633 L84.9453075,11.2361826 L84.8990353,1.27471054 L83.557151,0.310697115 L83.4183356,0.310697115 L74.1176898,1.41242675 L74.1176898,4.21265623 L77.4029923,4.80942644 L77.4029923,34.5102211 L74.996855,34.9233697 L74.996855,37.9531262 L87.6753479,37.9531262 Z M132.559062,37.9531262 L132.559062,34.9233697 L128.718497,34.4643157 L128.718497,26.6603975 L132.466518,22.3911952 C135.798092,26.7981136 139.870017,37.9531262 141.628348,37.9531262 L150.975266,37.9531262 L150.975266,34.9233697 L148.754216,34.4184103 C146.995885,33.4084915 141.396989,20.8763169 137.047433,17.0202632 L145.37637,7.65556133 L149.448294,7.01288573 L149.448294,3.84541301 L136.260811,3.84541301 L136.260811,7.05879112 L140.008833,7.70146673 L128.718497,21.9780465 L128.718497,7.70146673 L132.142615,7.05879112 L132.142615,3.84541301 L117.289344,3.84541301 L117.289344,7.05879112 L120.852279,7.70146673 L120.852279,34.4184103 L117.289344,34.9233697 L117.289344,37.9531262 L132.559062,37.9531262 Z M158.378765,8.48185857 C161.478981,8.48185857 163.144768,6.59973711 163.144768,4.07494002 C163.144768,2.00919696 161.71034,0.310697115 158.841484,0.310697115 C156.0189,0.310697115 154.306841,2.23872397 154.306841,4.71761565 C154.306841,6.87516949 155.880084,8.48185857 158.332493,8.48185857 L158.378765,8.48185857 Z M165.967352,37.9531262 L165.967352,34.9233697 L163.19104,34.5102211 L163.19104,12.7969663 L161.756612,11.8329528 L161.664068,11.8329528 L152.409694,12.9346825 L152.409694,16.3775876 L155.509909,17.2497902 L155.509909,34.5102211 L152.641054,34.9233697 L152.641054,37.9531262 L165.967352,37.9531262 Z M181.977419,37.9531262 L181.977419,34.9233697 L179.478738,34.5102211 L179.478738,18.2138036 C180.542991,17.2956956 182.347594,16.2398714 184.244741,16.2398714 C186.974781,16.2398714 187.668859,17.7547496 187.668859,21.9780465 L187.668859,34.5102211 L185.355265,34.9233697 L185.355265,37.9531262 L197.987486,37.9531262 L197.987486,34.9233697 L195.396262,34.5102211 L195.396262,21.9321411 C195.396262,20.5090737 195.303718,19.177817 195.11863,18.030182 C196.182883,17.2038848 197.848671,16.2398714 199.56073,16.2398714 C202.337042,16.2398714 203.123664,17.7547496 203.123664,22.1157627 L203.123664,34.5102211 L201.041429,34.9233697 L201.041429,37.9531262 L213.581106,37.9531262 L213.581106,34.9233697 L210.804794,34.5102211 L210.804794,21.9321411 C210.804794,14.8627093 208.630016,11.9247636 203.169936,11.9247636 C199.792089,11.9247636 196.367971,13.4396419 194.37828,15.3217633 C193.314027,13.0264933 191.324337,11.9247636 187.992762,11.9247636 C185.401538,11.9247636 180.820622,13.4855473 178.738388,15.5971958 L178.738388,13.3019257 L177.812951,12.0165745 L177.442776,11.8329528 L169.021296,12.8428717 L169.021296,16.423493 L171.751336,17.2497902 L171.751336,34.5102211 L169.298926,34.9233697 L169.298926,37.9531262 L181.977419,37.9531262 Z" id="JoshKim"></path>
            </g>
        </g>
    </g>
</svg>