<?xml version="1.0" encoding="UTF-8"?>
<svg width="112px" height="112px" viewBox="0 0 112 112" version="1.1" xmlns="http://www.w3.org/2000/svg" xmlns:xlink="http://www.w3.org/1999/xlink">
    <title>Combined-Shape</title>
    <g id="New-Logo" stroke="none" stroke-width="1" fill="none" fill-rule="evenodd">
        <path d="M49.403,1 L30.1559985,34.3361674 C31.4036362,34.1164366 32.6875171,34.0018338 33.9981662,34.0018338 C39.1765947,34.0018338 43.9371525,35.7908656 47.6954301,38.7845472 L57.868,1 L102.403835,1 C107.149919,1 110.99738,4.86332233 110.99738,9.62897195 L110.99738,102.371888 C110.99738,103.765671 110.661143,105.138713 110.017432,106.373559 C107.816444,110.595767 102.623466,112.226934 98.4185926,110.016871 L59.6724022,100.688906 C58.3133068,99.9745717 56.811346,99.6491701 55.3220912,99.7127013 L48.0999015,72.8880078 C44.2815187,76.0797865 39.3641899,78.0007859 33.9981662,78.0007859 C33.0892909,78.0007859 32.193288,77.9456759 31.3133169,77.8386153 L45.397,102.23 L13.5787875,110.016871 C12.3490116,110.663237 10.9816067,111.00086 9.59354545,111.00086 C4.84746098,111.00086 1,107.137537 1,102.371888 L1,9.62897195 C1,4.86332233 4.84746098,1 9.59354545,1 L49.403,1 Z M33.9986901,44.0013099 C27.3712731,44.0013099 21.9986901,49.3738929 21.9986901,56.0013099 C21.9986901,62.6287269 27.3712731,68.0013099 33.9986901,68.0013099 C40.6261071,68.0013099 45.9986901,62.6287269 45.9986901,56.0013099 C45.9986901,49.3738929 40.6261071,44.0013099 33.9986901,44.0013099 Z" id="Combined-Shape" stroke="#162330" fill-rule="nonzero"></path>
    </g>
</svg>