<?xml version="1.0" encoding="UTF-8"?>
<svg width="403px" height="403px" viewBox="0 0 403 403" version="1.1" xmlns="http://www.w3.org/2000/svg" xmlns:xlink="http://www.w3.org/1999/xlink">
    <title>Group 8</title>
    <g id="Page-1" stroke="none" stroke-width="1" fill="none" fill-rule="evenodd">
        <g id="Group-8">
            <path d="M167.336,253.056 C172.824,252.16 175.512,251.488 177.752,250.256 C180.664,248.688 181.448,247.456 181.56,244.208 C181.56,239.504 181.56,238.832 181.448,230.32 C181.357,226.134 181.339937,222.391625 181.336738,218.972727 L181.336,176.336 C184.584,174.544 185.48,173.872 185.48,173.088 C185.48,172.528 185.144,172.08 184.136,171.408 C181.112,169.168 179.992,168.384 176.856,166.032 C175.064,168.384 174.504,169.056 172.824,171.408 L142.024,171.408 C142.472,166.032 142.584,163.232 142.696,156.96 C147.288,155.84 148.52,155.168 148.52,154.048 C148.52,153.376 148.072,153.04 146.84,152.704 C144.376,152.144 138.888,151.472 134.744,151.136 C134.968,155.28 135.08,157.184 135.08,159.312 C135.08,162.896 134.856,166.144 134.408,171.408 L105.96,171.408 C102.152,168.72 100.92,168.048 96.776,166.032 C97.112,171.184 97.224,183.056 97.224,209.488 C97.224,226.4 97.112,232 96.664,250.816 C96.664,252.048 97.336,252.496 99.24,252.496 C103.72,252.496 105.064,252.048 105.176,250.368 C104.987745,236.060596 104.957704,233.223748 104.95291,229.159055 L104.952,173.984 L134.184,173.984 C132.392,188.768 130.264,196.16 125.672,203.888 C121.64,210.944 114.472,218.896 107.416,224.384 L108.424,225.952 C118.952,219.792 124.552,215.088 130.6,207.136 C134.408,202.096 136.648,197.952 138.328,192.912 C145.832,198.064 152.328,204.448 158.264,212.176 C163.64,219.12 163.64,219.12 163.752,219.232 C165.32,221.584 165.656,221.92 166.44,221.92 C167.672,221.92 168.344,220.464 168.344,217.664 C168.344,211.616 167.896,210.384 164.76,207.248 C160.728,203.216 149.528,196.048 139,190.672 C140.456,185.52 140.904,182.72 141.8,173.984 L173.272,173.984 L173.272,241.968 C173.272,243.2 173.048,243.536 172.04,243.536 L171.368,243.536 L171.368,243.536 C163.976,242.976 163.304,242.976 152.216,241.856 L152.104,243.536 C161.848,245.328 162.632,245.44 164.312,246.784 C165.992,248.128 166.776,249.696 167.336,253.056 Z M240.024,170.96 L240.024,164.24 L240.024,164.24 L262.424,164.24 C262.312,167.152 262.312,167.6 262.2,170.848 C262.2,171.744 262.536,172.08 263.656,172.08 C264.776,172.08 268.024,171.968 268.36,171.856 C269.032,171.744 269.256,171.52 269.368,170.848 C269.256,167.6 269.256,166.368 269.256,164.24 L303.192,164.24 C303.864,164.24 304.424,163.904 304.424,163.344 C304.424,163.232 304.2,162.896 303.976,162.56 C299.384,158.416 297.928,157.296 293.448,153.712 C290.424,156.96 289.528,158.08 286.392,161.664 L269.256,161.664 L269.256,156.064 C272.616,155.056 273.848,154.384 273.848,153.488 C273.848,153.152 273.624,152.816 273.288,152.592 C272.28,152.032 267.912,151.472 261.976,150.912 C262.424,155.056 262.536,155.616 262.536,161.664 L240.024,161.664 C240.024,158.752 240.024,158.752 239.912,156.064 C243.832,155.168 245.064,154.608 245.064,153.6 C245.064,152.48 243.384,152.032 232.968,150.8 C233.192,153.6 233.304,154.608 233.304,157.072 L233.304,161.664 L213.256,161.664 C208.328,161.664 205.08,161.328 201.832,160.544 L202.616,165.136 C205.416,164.576 209.112,164.24 212.696,164.24 L233.192,164.24 C233.192,168.048 233.192,168.048 233.08,170.96 L233.08,171.184 L233.08,171.184 C233.08,172.08 233.528,172.416 234.536,172.416 C239.128,172.416 239.912,172.192 240.024,170.96 Z M255.032,230.096 C256.264,230.096 257.832,227.408 257.832,225.168 C257.832,222.704 255.48,221.136 246.296,217.44 C250.216,213.52 253.128,209.936 256.376,205.008 L275.528,205.008 C281.352,213.968 287.736,220.016 298.488,226.848 C300.056,222.928 301.512,221.696 305.992,220.576 L305.992,219.568 C297.928,217.664 294.232,216.208 288.072,212.064 C284.488,209.712 282.024,207.696 279.448,205.008 L302.52,205.008 C303.08,205.008 303.64,204.56 303.64,204.112 C303.64,204 303.304,203.552 303.08,203.104 C299.608,199.856 298.488,198.848 294.792,195.6 C292.216,198.4 291.32,199.408 288.632,202.432 L277.208,202.432 C274.632,198.96 273.512,196.944 271.272,191.904 L297.928,191.904 C298.712,191.904 299.272,191.568 299.272,191.008 C299.272,190.896 299.048,190.448 298.824,190.112 C295.464,187.088 294.344,186.192 290.648,183.392 C288.072,185.744 287.288,186.528 284.712,189.328 L275.416,189.328 C279,186.864 279,186.864 287.288,178.8 C290.312,178.688 291.88,178.24 291.88,177.456 C291.88,176.672 290.2,175.888 282.584,172.976 C280.344,178.688 277.32,183.84 273.064,189.328 L264.328,189.328 C265.784,185.52 266.344,183.952 268.136,178.8 C271.72,177.904 272.616,177.568 272.616,176.56 C272.616,176.336 272.392,176 272.056,175.888 C271.048,175.328 266.68,174.32 261.976,173.648 C260.856,179.92 259.848,183.504 257.944,189.328 L246.072,189.328 C242.488,189.328 239.352,188.992 236.888,188.432 L237.448,192.464 C239.688,192.016 241.928,191.904 246.072,191.904 L256.936,191.904 C255.48,195.712 254.136,198.736 252.232,202.432 L245.176,202.432 C237,202.096 237,202.096 234.424,201.648 L235.096,205.568 C237.56,205.232 241.48,205.008 245.176,205.008 L250.776,205.008 C245.96,212.96 241.256,218.672 233.864,225.28 L234.76,226.96 C240.024,223.152 242.04,221.472 245.4,218.336 C247.752,220.8 251,224.944 253.24,228.528 C253.912,229.648 254.472,230.096 255.032,230.096 Z M250.104,188.208 C251.896,188.208 253.912,185.408 253.912,182.832 C253.912,179.92 250.888,177.232 243.048,173.536 L242.376,174.432 C245.512,179.024 246.744,181.6 247.864,184.848 C248.872,187.76 249.096,188.208 250.104,188.208 Z M224.008,253.952 C227.704,253.392 229.384,252.72 231.176,251.264 C232.632,250.032 233.08,248.8 233.08,245.44 L233.08,183.168 C235.208,181.6 236.104,180.816 236.104,180.144 C236.104,179.696 235.768,179.36 235.096,178.8 C233.192,177.568 231.176,176.224 229.16,174.88 C227.704,176.56 227.256,177.008 225.8,178.8 L215.944,178.8 C212.696,176.448 211.688,175.776 208.216,173.76 C208.431385,177.313846 208.543219,178.796686 208.551503,182.888198 L208.551076,186.729712 C208.53884,206.89996 208.3952,209.1184 207.544,219.12 C206.872,227.744 206.088,231.776 203.624,240.736 C202.056,246.112 201.384,247.904 199.144,252.048 L200.376,253.056 C209.112,241.632 212.024,234.24 213.816,219.456 L226.36,219.456 L226.36,244.768 C226.36,245.888 226.024,246.336 225.24,246.336 L224.68,246.336 L224.68,246.336 C218.744,245.776 218.744,245.776 212.696,245.44 L212.584,247.008 C218.856,248.016 219.864,248.24 221.096,249.024 C222.888,249.92 223.56,251.152 224.008,253.952 Z M226.36,197.392 L214.824,197.392 C214.936,186.08 214.936,186.08 215.048,181.376 L226.36,181.376 L226.36,197.392 Z M273.96,202.432 L258.056,202.432 C260.184,198.96 261.64,195.936 263.32,191.904 L269.592,191.904 C271.048,196.608 271.832,198.4 273.96,202.432 Z M226.36,216.88 L214.152,216.88 C214.6,212.176 214.712,209.376 214.712,205.456 L214.712673,203.77356 C214.715702,201.70076 214.732364,201.434182 214.824,199.968 L226.36,199.968 L226.36,216.88 Z M258.616,253.952 C266.904,252.608 268.584,251.488 268.696,246.672 L268.696,231.104 C277.432,237.04 278.664,237.936 284.152,243.2 C285.72,244.768 287.064,245.888 287.96,246.672 C288.968,247.68 289.64,248.24 289.976,248.688 C291.544,250.368 291.768,250.592 292.328,250.592 C293.336,250.592 294.456,249.136 294.456,247.68 C294.456,245.328 294.008,242.976 293.336,241.856 C291.656,239.056 285.608,235.696 275.304,231.888 C274.632,231.552 273.288,231.104 271.832,230.544 C276.536,228.528 278.328,227.52 284.488,223.6 C285.72,223.936 287.288,224.272 287.736,224.272 C288.296,224.272 289.08,223.824 289.08,223.264 C289.08,222.928 288.52,222.368 287.512,221.696 C287.176,221.36 286.168,220.688 284.712,219.68 C283.928,219.008 282.584,218.112 280.904,216.88 C278.216,221.472 274.632,226.288 270.936,230.208 C269.928,229.872 269.704,229.76 268.696,229.312 L268.696,213.296 C271.608,212.512 272.616,211.952 272.616,211.056 C272.616,209.824 271.16,209.376 261.64,208.144 C261.976,212.624 262.088,214.416 262.088,219.456 L262.088,229.536 C253.464,233.456 244.168,236.816 236.888,238.608 C239.352,247.456 239.912,248.688 241.032,248.688 C241.928,248.688 242.264,248.016 242.488,244.32 C246.856,241.52 249.208,239.952 252.904,237.376 C259.4,232.784 260.184,232.224 262.088,231.104 L262.088,244.544 C262.088,245.888 261.864,246.336 261.08,246.336 L260.856,246.336 L260.856,246.336 C257.832,246.224 257.832,246.224 254.808,246.112 C250.44,245.776 250.44,245.776 247.192,245.776 L247.192,247.12 C253.352,248.352 253.8,248.464 254.92,248.912 C257.496,250.032 258.28,251.152 258.616,253.952 Z" id="内藤" fill="#717171" fill-rule="nonzero"></path>
            <circle id="Oval" stroke="#B8B8B8" stroke-width="3" cx="201.5" cy="201.5" r="200"></circle>
        </g>
    </g>
</svg>